<!-- icon666.com - MILLIONS vector ICONS FREE --><svg id="icons" viewBox="0 0 340 340" xmlns="http://www.w3.org/2000/svg"><path d="m266.512 247.466h14.239v17.943h-14.239z" fill="#343449"></path><path d="m30.89 178.593s-21.729 2.666-16.674 22.187c4.737 18.293 26.044 8.783 26.044 8.783z" fill="#505072"></path><path d="m48.2 147.692s-14.134 6.379-19.4 22.267c.555 19.533 12.8 35.655 33.083 49.427l88.117-33.932s109.184-51.445 153.24-77.714l-23.808-53.908s-131.075 44.877-231.232 93.86z" fill="#76769b"></path><path d="m303.28 108.48-9.622-22.436a73.3 73.3 0 0 1 -11.729 7.294l-139.293 63.249a27.889 27.889 0 0 1 -17.1 1.887c-12.463-2.537-37.36-4.187-60.517 14.74-21.3 17.405-31.614 6.432-36.207-3.254-2.524 7.611-3.015 17.4 1.063 29.724 0 0 6.567 21.618 32.016 19.7l89.157-33.76s108.175-50.874 152.232-77.144z" fill="#505072"></path><path d="m45.139 140.249 8.665-3.137a4.928 4.928 0 0 1 6.528 3.725c1.907 10.178 7.164 31.9 19.465 48.964l-19.562 16.44s-16.435-25.625-21.135-55.704a9.368 9.368 0 0 1 6.039-10.288z" fill="#ffb664"></path><path d="m48.154 182.113a163.115 163.115 0 0 0 12.081 24.128l19.565-16.441c-12.3-17.068-17.558-38.786-19.465-48.964a4.925 4.925 0 0 0 -5.306-3.995 118.56 118.56 0 0 0 5.741 30.712 9.95 9.95 0 0 1 -4.9 11.969 28.135 28.135 0 0 1 -7.716 2.591z" fill="#e87b40"></path><path d="m130.373 109.094c2.483 14.774 10.446 52.529 29.844 75.889a8.647 8.647 0 0 0 10.714 2.135l8.92-4.744a6 6 0 0 0 2.311-8.42c-7.092-11.679-23.19-40.882-28.181-72.663a6.006 6.006 0 0 0 -8.075-4.7l-10.716 4.1a7.648 7.648 0 0 0 -4.817 8.403z" fill="#ffb664"></path><path d="m153.981 101.291a6.009 6.009 0 0 0 -6.949-5.006c.025 4.184.718 23.322 10.709 46.228a6.605 6.605 0 0 1 -3.046 8.533c-2.65 1.353-6.316 3.1-11.141 5.124 4.281 10.305 9.078 20.466 16 28.8a9.59 9.59 0 0 0 11.376 2.145l8.92-4.744a6 6 0 0 0 2.311-8.42c-7.091-11.676-23.189-40.879-28.18-72.66z" fill="#e87b40"></path><ellipse cx="275.321" cy="226.444" fill="#505072" rx="25.6" ry="25.4"></ellipse><path d="m103.955 263.622 15.453-15.453 22.592 15.453h56.2a8.493 8.493 0 0 0 8.474-8.367c.028-8.7-1.945-22.207-13.009-30.681a37.649 37.649 0 0 1 -10.865-13.507c-6.611-13.624-25.584-40.358-65.512-40.358-51.442 0-76.917 43.091-80.29 77.814a13.727 13.727 0 0 0 13.635 15.1z" fill="#f9e8de"></path><path d="m206.678 255.185c.016-8.7-1.976-22.16-13.01-30.611a37.448 37.448 0 0 1 -10.42-12.638 25.28 25.28 0 0 1 -1.928 9.032c-4.052 9.147-16.914 9.653-22.081 1.086-5.591-9.273-17.776-22.736-41.382-22.736-36.006 0-42.418 40.787-42.418 40.787h-21.539a11.587 11.587 0 0 0 -10.051 5.69 29.361 29.361 0 0 0 -3.937 12.623 13.61 13.61 0 0 0 10.715 5.2h49.253l19.127-10.582 19.148 10.582h60.045a8.5 8.5 0 0 0 8.478-8.433z" fill="#d3a1a7"></path><path d="m154.1 265.838-22.316-22.316 22.316-22.317-12.777-12.776-22.316 22.316-22.316-22.316-12.777 12.776 22.316 22.317-22.316 22.316 12.777 12.776 22.316-22.316 22.316 22.316z" fill="#993c4e"></path><path d="m119.007 192.4a51.125 51.125 0 1 0 51.124 51.125 51.124 51.124 0 0 0 -51.124-51.125zm0 87.353a36.229 36.229 0 1 1 36.228-36.228 36.228 36.228 0 0 1 -36.228 36.225z" fill="#c66b76"></path><circle cx="249.721" cy="269.046" fill="#505072" r="25.6"></circle><circle cx="299.247" cy="269.046" fill="#505072" r="25.6"></circle><path d="m214.194 76.987c2.373 13.369 9.941 45.709 29.917 65.355a7.291 7.291 0 0 0 8.553 1.2l6.966-3.733a5.516 5.516 0 0 0 1.934-8c-7.522-10.817-24.156-37.473-25.475-63.329a4.318 4.318 0 0 0 -5.811-3.8l-11.4 4.181a7.3 7.3 0 0 0 -4.684 8.126z" fill="#ffb664"></path><path d="m270.846 56.862 26.083 55.522a6.257 6.257 0 0 0 8.5 2.919l5.214-2.646a11.24 11.24 0 0 0 5.635-13.357c-3.4-10.992-10.424-30.24-22.444-48.858a11.194 11.194 0 0 0 -13.236-4.39l-6.229 2.269a6.259 6.259 0 0 0 -3.523 8.541z" fill="#ffb664"></path><g fill="#fff"><path d="m261.911 228.973a3.032 3.032 0 0 1 -3.219-2.832 15.649 15.649 0 0 1 6.927-13.983 3.031 3.031 0 1 1 3.361 5.046 9.567 9.567 0 0 0 -4.237 8.55 3.032 3.032 0 0 1 -2.832 3.219z"></path><circle cx="276.085" cy="210.112" r="3.031"></circle><path d="m235.465 272.984a3.032 3.032 0 0 1 -3.219-2.832 15.647 15.647 0 0 1 6.927-13.983 3.031 3.031 0 1 1 3.36 5.046 9.569 9.569 0 0 0 -4.237 8.55 3.031 3.031 0 0 1 -2.831 3.219z"></path><circle cx="249.638" cy="254.123" r="3.031"></circle><path d="m287.579 272.984a3.032 3.032 0 0 1 -3.219-2.832 15.647 15.647 0 0 1 6.927-13.983 3.031 3.031 0 0 1 3.36 5.046 9.572 9.572 0 0 0 -4.237 8.55 3.031 3.031 0 0 1 -2.831 3.219z"></path><circle cx="301.753" cy="254.123" r="3.031"></circle></g><path d="m238.192 105.671a6.944 6.944 0 0 1 -3.393 8.849l-7.528 3.637c4.278 8.715 9.781 17.243 16.84 24.185a7.292 7.292 0 0 0 8.553 1.2l6.966-3.733a5.516 5.516 0 0 0 1.934-8c-7.522-10.817-24.156-37.473-25.475-63.329a4.318 4.318 0 0 0 -5.811-3.8 110.934 110.934 0 0 0 7.914 40.991z" fill="#e87b40"></path><path d="m286.747 90.71 10.182 21.674a6.257 6.257 0 0 0 8.5 2.919l5.214-2.646a11.177 11.177 0 0 0 3.446-2.723c-1.106-7.611-4.352-15.743-6.828-21.123a6.839 6.839 0 0 0 -9.073-3.362z" fill="#e87b40"></path><path d="m279.92 53.943 1.2-.488a3.9 3.9 0 0 1 5.053 2.1l4.007 9.493a2.49 2.49 0 0 1 -1.474 3.319l-2.093.729a2.723 2.723 0 0 1 -3.228-1.154 52.651 52.651 0 0 1 -5-10.673 2.68 2.68 0 0 1 1.535-3.326z" fill="#fff"></path><path d="m18.972 213.069a19.147 19.147 0 0 0 9.689 2.387 31.4 31.4 0 0 0 7.179-.9 31.64 31.64 0 0 0 5.528 4.006 98.508 98.508 0 0 0 -7.774 29.634 17.141 17.141 0 0 0 17.037 18.845h19.169a54.549 54.549 0 1 0 -2.718-6.833h-16.451a10.142 10.142 0 0 1 -7.6-3.365 10.409 10.409 0 0 1 -2.638-7.987c3.5-35.991 29.049-74.727 76.89-74.727 39.523 0 56.831 26.877 62.439 38.432a41.212 41.212 0 0 0 11.866 14.729c9.695 7.425 11.7 19.3 11.671 27.958a5.089 5.089 0 0 1 -5.059 4.96h-17.663a3.417 3.417 0 1 0 0 6.833h17.663a11.872 11.872 0 0 0 11.892-11.772c.033-10.2-2.431-24.277-14.349-33.4a34.357 34.357 0 0 1 -9.874-12.287c-4.813-9.918-23.983-42.282-68.586-42.282-24.256 0-45.26 9.355-60.743 27.054a91.791 91.791 0 0 0 -12.225 18.018 27.335 27.335 0 0 1 -11.2-13.754c-5.967-18.029-1.585-30.167 4.522-37.9a160.722 160.722 0 0 0 9.975 28.814 3.417 3.417 0 0 0 6.231-2.806 144.352 144.352 0 0 1 -11.364-36.716 5.975 5.975 0 0 1 3.823-6.549l8.664-3.137a2.083 2.083 0 0 1 2.007 1.142 151.644 151.644 0 0 0 10.043 32.681 3.417 3.417 0 1 0 6.238-2.79 142.564 142.564 0 0 1 -8.854-27.648c19.171-9.046 40.558-18.54 63.658-28.257 2.524 13.042 7.5 33.1 16.556 51.317a3.417 3.417 0 1 0 6.12-3.041c-10.139-20.4-14.995-43.343-16.987-55.2a4.245 4.245 0 0 1 2.668-4.65l10.715-4.1a2.533 2.533 0 0 1 2.2.174 2.616 2.616 0 0 1 1.273 1.868c5.114 32.558 21.66 62.574 28.637 73.907 1.693 2.749-1.985 4.156-1.985 4.156a3.417 3.417 0 0 0 1.609 6.434 13.605 13.605 0 0 0 2.59-.927c2.278-1.212 4.594-2.553 5.278-5.041.661-2.409-.3-5.787-1.535-7.954 20.559-9.944 39.491-19.284 56.344-27.795.058.058.114.119.173.177a10.619 10.619 0 0 0 7.462 3.064 10.783 10.783 0 0 0 5.1-1.29l6.966-3.734a8.92 8.92 0 0 0 4.313-10.522c11.649-6.069 21.663-11.465 29.856-16.083a7.828 7.828 0 0 0 4.036 2.66c5.193 1.088 12.737-3.169 12.737-3.169a14.63 14.63 0 0 0 7.357-17.414c-3.178-10.273-10.37-30.391-22.839-49.7a14.524 14.524 0 0 0 -17.276-5.748l-6.229 2.27a9.643 9.643 0 0 0 -6.345 9.5c-6.683 2.363-13.745 4.894-21.071 7.558a3.417 3.417 0 1 0 2.336 6.422c7.277-2.646 14.292-5.161 20.934-7.51l23.082 49.135c-8.223 4.637-18.318 10.074-30.089 16.205-7.82-11.851-21.387-35.462-22.544-58.121a7.613 7.613 0 0 0 -3.442-6.018 7.791 7.791 0 0 0 -6.958-.815l-11.4 4.181a10.706 10.706 0 0 0 -7.014 9.549c-18.835 7.127-37.313 14.347-55.012 21.491a9.39 9.39 0 0 0 -10.99-3.288l-10.715 4.1a11.1 11.1 0 0 0 -7.089 11.038c-23.381 9.814-45.045 19.411-64.473 28.558a8.323 8.323 0 0 0 -9.766-3.193l-8.665 3.138c-10.884 4.5-8.09 14.905-8.017 15.342a41.313 41.313 0 0 0 -12.166 24.606c-11.012 4.246-15.819 13.323-12.886 24.654 1.367 5.272 4.081 9.119 8.065 11.426zm100.035-17.254a47.707 47.707 0 1 1 -47.707 47.706 47.76 47.76 0 0 1 47.707-47.706zm62.736-29.338c-7.446-13.155-19.4-37.26-23.974-63.267 17.353-7.01 35.466-14.092 53.931-21.091 2.876 13.919 9.858 38.989 25.052 57.243-16.513 8.327-34.993 17.438-55.009 27.115zm93.8-114.945 6.228-2.269a7.819 7.819 0 0 1 9.2 3.033c12.026 18.623 18.978 38.075 22.051 48.013a7.811 7.811 0 0 1 -3.921 9.3l-5.215 2.646a2.84 2.84 0 0 1 -3.857-1.325l-26.09-55.521a3.1 3.1 0 0 1 1.599-3.877zm-55.491 20.531 11.4-4.181a.927.927 0 0 1 .836.1.831.831 0 0 1 .388.667c1.37 26.879 18.7 54.484 26.081 65.106a2.06 2.06 0 0 1 .314 1.673 2.1 2.1 0 0 1 -1.057 1.369l-6.965 3.733a3.9 3.9 0 0 1 -4.543-.623c-19.324-19.005-26.682-50.75-28.949-63.516a3.884 3.884 0 0 1 2.495-4.328zm-196.545 112.547a59.239 59.239 0 0 0 3.093 16.067 31.516 31.516 0 0 0 3.982 7.841 13.936 13.936 0 0 1 -8.186-1.362c-2.376-1.376-3.97-3.741-4.873-7.231-1.812-7.003.204-12.135 5.984-15.315z" fill="#343449"></path><path d="m119.007 283.167a39.646 39.646 0 1 0 -39.645-39.646 39.691 39.691 0 0 0 39.645 39.646zm-12.661-9.377 12.661-12.659 12.66 12.659a32.775 32.775 0 0 1 -25.321 0zm45.473-30.269a32.639 32.639 0 0 1 -2.543 12.661l-12.66-12.661 12.66-12.66a32.638 32.638 0 0 1 2.543 12.66zm-20.152-30.268-12.66 12.66-12.66-12.66a32.785 32.785 0 0 1 25.32 0zm-31.532 3.447 16.456 16.457a3.415 3.415 0 0 0 4.831 0l16.457-16.456a33.08 33.08 0 0 1 7.945 7.944l-16.456 16.456a3.416 3.416 0 0 0 0 4.832l16.456 16.456a33.066 33.066 0 0 1 -7.945 7.945l-16.457-16.456a3.416 3.416 0 0 0 -4.831 0l-16.456 16.456a33.066 33.066 0 0 1 -7.945-7.945l16.456-16.456a3.417 3.417 0 0 0 0-4.832l-16.456-16.451a33.07 33.07 0 0 1 7.945-7.95zm-13.935 26.821a32.638 32.638 0 0 1 2.543-12.66l12.66 12.66-12.664 12.661a32.622 32.622 0 0 1 -2.539-12.661z" fill="#343449"></path><path d="m220.705 269.046a29.011 29.011 0 0 0 54.616 13.643 29.013 29.013 0 1 0 25.6-42.659c-.685 0-1.362.032-2.035.079a29.016 29.016 0 1 0 -47.13 0c-.673-.047-1.35-.079-2.035-.079a29.049 29.049 0 0 0 -29.016 29.016zm29.016 22.183a22.183 22.183 0 1 1 22.179-22.183 22.208 22.208 0 0 1 -22.179 22.183zm73.379-22.183a22.183 22.183 0 1 1 -22.182-22.182 22.208 22.208 0 0 1 22.182 22.182zm-47.782-68.018a22.183 22.183 0 1 1 -22.183 22.182 22.208 22.208 0 0 1 22.186-22.182z" fill="#343449"></path><circle cx="119.007" cy="243.522" fill="#343449" r="3.417"></circle></svg>