<!-- icon666.com - MILLIONS vector ICONS FREE --><svg xmlns="http://www.w3.org/2000/svg" xmlns:xlink="http://www.w3.org/1999/xlink" version="1.1" id="Layer_1" x="0px" y="0px" viewBox="0 0 256 256" xml:space="preserve"><g><path fill="#FCE8CB" d="M201.961,219.437c-17.739,0-33.928-9.731-42.251-25.397l-1.451-2.731c-2.32-4.365-0.661-9.783,3.704-12.103 c4.365-2.32,9.784-0.661,12.102,3.704l1.452,2.732c5.209,9.805,15.341,15.896,26.444,15.896c4.943,0,8.95,4.007,8.95,8.95 C210.911,215.43,206.904,219.437,201.961,219.437z"></path><path fill="#3A312A" d="M201.961,220.936c-18.295,0-34.992-10.036-43.574-26.192l-1.451-2.731 c-1.311-2.465-1.582-5.292-0.765-7.961c0.816-2.669,2.624-4.86,5.089-6.17c2.466-1.311,5.292-1.58,7.962-0.766 c2.668,0.817,4.859,2.624,6.168,5.089l1.452,2.732c4.948,9.314,14.573,15.101,25.119,15.101c5.763,0,10.45,4.688,10.45,10.449 C212.411,216.249,207.724,220.936,201.961,220.936z M166.154,179.655c-1.202,0-2.394,0.295-3.486,0.875 c-1.758,0.934-3.047,2.496-3.629,4.399c-0.582,1.902-0.389,3.918,0.545,5.675l1.451,2.731 c8.062,15.175,23.743,24.601,40.926,24.601c4.108,0,7.45-3.342,7.45-7.449c0-4.107-3.342-7.449-7.45-7.449 c-11.658,0-22.298-6.396-27.768-16.692l-1.452-2.732c-0.934-1.758-2.495-3.046-4.398-3.628 C167.623,179.765,166.887,179.655,166.154,179.655z"></path><path fill="#FCE8CB" d="M51.914,80.242c0.049,17.616-7.804,21.199-17.504,21.227c-9.7,0.027-17.574-3.512-17.624-21.128 c-0.049-17.616,17.458-37.959,17.458-37.959S51.865,62.626,51.914,80.242z"></path><path fill="#3A312A" d="M34.31,102.969c-13.111,0-18.979-6.982-19.024-22.624c-0.05-17.969,17.092-38.095,17.821-38.942 c0.284-0.33,0.697-0.521,1.133-0.521c0.001,0,0.003,0,0.004,0c0.434,0,0.847,0.188,1.132,0.516 C36.11,42.24,53.364,62.27,53.414,80.238l0,0c0.024,8.628-1.79,14.609-5.547,18.285c-3.082,3.016-7.356,4.428-13.453,4.445 C34.38,102.969,34.345,102.969,34.31,102.969z M34.251,44.745c-3.82,4.819-16.005,21.315-15.965,35.592 c0.049,17.294,7.779,19.629,16.12,19.632c5.265-0.015,8.875-1.155,11.363-3.59c3.148-3.08,4.667-8.356,4.645-16.133l0,0 C50.374,65.956,38.1,49.541,34.251,44.745z"></path><path fill="#87796F" d="M43.676,80.001c0.026,9.354-4.144,11.256-9.294,11.271c-5.151,0.015-9.331-1.865-9.358-11.218 c-0.026-9.354,9.269-20.155,9.269-20.155S43.649,70.647,43.676,80.001z"></path><path fill="#3A312A" d="M34.31,92.771c-2.156,0-5.254-0.274-7.573-2.518c-2.149-2.079-3.2-5.414-3.214-10.196 c-0.027-9.8,9.238-20.68,9.633-21.138c0.284-0.33,0.697-0.521,1.133-0.521c0.417,0.03,0.85,0.188,1.136,0.516 c0.396,0.456,9.724,11.283,9.751,21.083c0.014,4.781-1.02,8.122-3.157,10.214c-2.333,2.283-5.475,2.555-7.634,2.561 C34.36,92.771,34.336,92.771,34.31,92.771z M34.3,62.296c-2.403,3.148-7.796,10.975-7.776,17.754 c0.011,3.874,0.785,6.582,2.3,8.048c1.181,1.142,2.929,1.674,5.5,1.674c0.018,0,0.035,0,0.054,0c2.6-0.007,4.362-0.549,5.544-1.705 c1.507-1.475,2.266-4.187,2.255-8.062C42.156,73.227,36.72,65.431,34.3,62.296z"></path><path fill="#FCE8CB" d="M137.445,80.242c0.049,17.616-7.804,21.199-17.505,21.227c-9.7,0.027-17.574-3.512-17.624-21.128 c-0.049-17.616,17.458-37.959,17.458-37.959S137.395,62.626,137.445,80.242z"></path><path fill="#3A312A" d="M119.84,102.969c-13.111,0-18.979-6.982-19.023-22.624c-0.05-17.969,17.092-38.095,17.821-38.942 c0.284-0.33,0.697-0.521,1.133-0.521c0.001,0,0.003,0,0.004,0c0.434,0,0.847,0.188,1.132,0.516 c0.734,0.844,17.988,20.873,18.038,38.842l0,0c0.025,8.628-1.79,14.609-5.547,18.285c-3.082,3.016-7.356,4.428-13.453,4.445 C119.91,102.969,119.875,102.969,119.84,102.969z M119.781,44.745c-3.82,4.819-16.005,21.315-15.965,35.592 c0.049,17.294,7.812,19.629,16.12,19.632c5.265-0.015,8.875-1.155,11.363-3.59c3.148-3.08,4.667-8.356,4.645-16.133l0,0 C135.904,65.956,123.63,49.541,119.781,44.745z"></path><path fill="#87796F" d="M129.206,80.001c0.026,9.354-4.144,11.256-9.294,11.271c-5.151,0.015-9.331-1.865-9.358-11.218 c-0.026-9.354,9.269-20.155,9.269-20.155S129.18,70.647,129.206,80.001z"></path><path fill="#3A312A" d="M119.842,92.771c-2.156,0-5.254-0.274-7.573-2.518c-2.15-2.079-3.201-5.414-3.215-10.196 c-0.027-9.8,9.238-20.68,9.633-21.138c0.284-0.33,0.697-0.521,1.133-0.521c0.001,0,0.003,0,0.004,0 c0.434,0,0.847,0.188,1.132,0.516c0.396,0.456,9.724,11.283,9.751,21.083c0.014,4.781-1.02,8.122-3.156,10.214 c-2.334,2.283-5.475,2.555-7.634,2.561C119.892,92.771,119.867,92.771,119.842,92.771z M119.83,62.296 c-2.403,3.148-7.796,10.975-7.776,17.754c0.011,3.874,0.785,6.582,2.3,8.048c1.181,1.142,2.93,1.674,5.501,1.674 c0.018,0,0.035,0,0.054,0c2.6-0.007,4.361-0.549,5.543-1.705c1.507-1.475,2.266-4.187,2.255-8.062 C127.686,73.227,122.25,65.431,119.83,62.296z"></path><path fill="#FCE8CB" d="M123.495,115.235c0,21.799-15.47,41.214-28.541,53.728c-10.356,9.915-25.32,9.915-35.677,0 c-13.071-12.514-28.541-31.929-28.541-53.728c0-37.744,20.765-50.869,46.379-50.869S123.495,77.49,123.495,115.235z"></path><path fill="#3A312A" d="M77.115,177.899c-6.703,0-13.406-2.618-18.875-7.852c-13.231-12.668-29.004-32.461-29.004-54.813 c0-33.771,17.004-52.369,47.879-52.369c30.876,0,47.88,18.599,47.88,52.369c0,22.352-15.772,42.145-29.004,54.812 C90.522,175.281,83.819,177.899,77.115,177.899z M77.115,65.865c-20.474,0-44.879,8.566-44.879,49.369 c0,21.293,15.27,40.381,28.078,52.646c9.735,9.317,23.867,9.32,33.603-0.001c12.809-12.264,28.078-31.352,28.078-52.645 C121.995,74.431,97.589,65.865,77.115,65.865z"></path><path fill-rule="evenodd" clip-rule="evenodd" fill="#87796F" d="M51.11,139.391c-2.591,4.204-4.422,8.66-4.853,13.126 c-0.771,7.985,3.402,16.24,11.231,18.938c6.151,2.119,15.475,0.078,19.469-5.563h0.022c3.995,5.64,13.318,7.682,19.469,5.563 c7.829-2.698,12.001-10.954,11.231-18.938c-1.206-12.487-13.322-24.914-22.56-31.889c-0.039-0.029-0.083-0.062-0.133-0.097 c-4.781-3.412-11.248-3.411-16.032-0.003c-0.051,0.036-0.097,0.07-0.136,0.1c-2.646,1.998-5.528,4.445-8.322,7.21L51.11,139.391z"></path><path fill="#3A312A" d="M62.823,173.778c-2.079,0-4.077-0.304-5.824-0.906c-8.101-2.79-13.132-11.221-12.235-20.501 c0.421-4.361,2.126-8.994,5.068-13.768c0.437-0.706,1.36-0.923,2.064-0.49c0.705,0.436,0.925,1.359,0.49,2.064 c-2.7,4.381-4.261,8.58-4.637,12.481c-0.751,7.77,3.55,15.077,10.226,17.377c5.395,1.858,14.131,0.109,17.758-5.012 c0.563-0.793,1.906-0.793,2.469,0c3.627,5.12,12.365,6.868,17.757,5.012c6.675-2.3,10.976-9.607,10.226-17.376 c-1.094-11.329-12.066-23.357-21.972-30.836l-0.096-0.07c-4.272-3.051-10.016-3.051-14.294-0.005l-0.103,0.074 c-2.812,2.124-5.637,4.572-8.17,7.08c-0.59,0.582-1.538,0.577-2.122-0.011c-0.582-0.589-0.577-1.539,0.011-2.122 c2.627-2.6,5.557-5.138,8.473-7.341l0.171-0.125c5.319-3.787,12.462-3.786,17.773,0.005l0.176,0.129 c5.042,3.807,21.646,17.458,23.139,32.933c0.896,9.28-4.136,17.711-12.235,20.501c-6.009,2.069-15.006,0.618-19.968-4.636 C73.447,171.964,67.896,173.778,62.823,173.778z"></path><path fill="#3A312A" d="M67.602,100.556c0,2.645-2.145,4.79-4.79,4.79c-2.645,0-4.79-2.145-4.79-4.79c0-2.645,2.145-4.79,4.79-4.79 C65.457,95.766,67.602,97.91,67.602,100.556z"></path><path fill="#F59689" d="M61.502,117.222c0,3.862-4.19,6.993-9.359,6.993c-5.169,0-9.359-3.131-9.359-6.993 c0-3.862,4.19-6.993,9.359-6.993C57.311,110.229,61.502,113.359,61.502,117.222z"></path><path fill="#3A312A" d="M86.63,100.924c0,2.645,2.145,4.79,4.79,4.79s4.79-2.145,4.79-4.79c0-2.645-2.145-4.79-4.79-4.79 S86.63,98.279,86.63,100.924z"></path><path fill="#F59689" d="M92.73,117.59c0,3.862,4.19,6.993,9.359,6.993c5.169,0,9.359-3.131,9.359-6.993 c0-3.862-4.19-6.993-9.359-6.993C96.92,110.598,92.73,113.728,92.73,117.59z"></path><g><path fill="#695B51" d="M90.439,153.461c-0.019,4.414-6.015,11.518-13.371,11.486c-7.356-0.032-13.289-7.189-13.269-11.603 c0.019-4.414,5.999-7.966,13.355-7.934C84.51,145.443,90.458,149.047,90.439,153.461z"></path><path fill="#3A312A" d="M77.116,166.446c-0.019,0-0.036,0-0.056,0c-8.179-0.036-14.784-7.958-14.763-13.108 c0.023-5.3,6.495-9.428,14.753-9.428c0.037,0,0.072,0,0.109,0c3.825,0.017,7.44,0.939,10.179,2.6 c2.979,1.805,4.611,4.275,4.6,6.958C91.916,158.606,85.272,166.446,77.116,166.446z M77.056,146.91 c-6.367,0-11.742,2.938-11.758,6.44c-0.014,3.35,5.067,10.066,11.776,10.096c0.014,0,0.029,0,0.044,0 c6.688,0.001,11.806-6.649,11.82-9.992c0.007-1.587-1.113-3.143-3.154-4.379c-2.28-1.382-5.348-2.15-8.638-2.165 C77.116,146.91,77.086,146.91,77.056,146.91z"></path></g><path fill="#FCE8CB" d="M153.683,80.242c0.049,17.616-7.804,21.199-17.505,21.227c-9.7,0.027-17.574-3.512-17.623-21.128 c-0.05-17.616,17.457-37.959,17.457-37.959S153.633,62.626,153.683,80.242z"></path><path fill="#3A312A" d="M136.078,102.969c-13.111,0-18.98-6.982-19.023-22.624c-0.05-17.969,17.092-38.095,17.821-38.942 c0.284-0.33,0.697-0.521,1.133-0.521c0.001,0,0.003,0,0.004,0c0.434,0,0.847,0.188,1.132,0.516 c0.734,0.844,17.988,20.873,18.038,38.842l0,0c0.024,8.628-1.79,14.609-5.547,18.285c-3.082,3.016-7.356,4.428-13.453,4.445 C136.148,102.969,136.113,102.969,136.078,102.969z M136.019,44.745c-3.82,4.819-16.005,21.315-15.965,35.592 c0.049,17.209,7.701,19.632,15.998,19.632c0.041,0,0.081,0,0.122,0c5.265-0.015,8.875-1.155,11.363-3.59 c3.147-3.08,4.667-8.356,4.645-16.133l0,0C152.143,65.956,139.868,49.541,136.019,44.745z"></path><path fill="#87796F" d="M145.444,80.001c0.026,9.354-4.144,11.256-9.294,11.271c-5.151,0.015-9.331-1.865-9.358-11.218 c-0.026-9.354,9.269-20.155,9.269-20.155S145.418,70.647,145.444,80.001z"></path><path fill="#3A312A" d="M136.079,92.771c-2.156,0-5.254-0.274-7.573-2.518c-2.149-2.079-3.2-5.414-3.214-10.196 c-0.027-9.8,9.238-20.68,9.633-21.138c0.284-0.33,0.697-0.521,1.133-0.521c0.001,0,0.003,0,0.004,0 c0.434,0,0.847,0.188,1.132,0.516c0.396,0.456,9.724,11.283,9.751,21.083c0.014,4.781-1.02,8.122-3.157,10.214 c-2.333,2.283-5.475,2.555-7.634,2.561C136.129,92.771,136.104,92.771,136.079,92.771z M136.068,62.296 c-2.403,3.148-7.796,10.975-7.776,17.754c0.011,3.874,0.785,6.582,2.3,8.048c1.181,1.142,2.929,1.674,5.5,1.674 c0.018,0,0.035,0,0.054,0c2.601-0.007,4.362-0.549,5.544-1.705c1.507-1.475,2.266-4.187,2.255-8.062 C143.925,73.227,138.488,65.431,136.068,62.296z"></path><path fill="#FCE8CB" d="M239.213,80.242c0.049,17.616-7.804,21.199-17.505,21.227c-9.7,0.027-17.574-3.512-17.623-21.128 c-0.049-17.616,17.457-37.959,17.457-37.959S239.164,62.626,239.213,80.242z"></path><path fill="#3A312A" d="M221.602,102.969c-6.037,0-10.286-1.39-13.366-4.37c-3.777-3.654-5.626-9.625-5.649-18.254 c-0.051-17.968,17.091-38.095,17.82-38.942c0.284-0.33,0.697-0.521,1.133-0.521c0.001,0,0.003,0,0.004,0 c0.434,0,0.847,0.188,1.132,0.516c0.734,0.844,17.988,20.873,18.039,38.842l0,0c0.044,15.683-5.816,22.693-19.001,22.731 C221.676,102.969,221.639,102.969,221.602,102.969z M221.55,44.745c-3.82,4.819-16.004,21.315-15.964,35.592 c0.021,7.775,1.57,13.044,4.735,16.105c2.485,2.405,6.072,3.526,11.28,3.526c0.035,0,0.068,0,0.104,0 c8.343-0.024,16.057-2.429,16.009-19.723l0,0C237.674,65.956,225.398,49.541,221.55,44.745z"></path><path fill="#87796F" d="M230.975,80.001c0.026,9.354-4.144,11.256-9.294,11.271c-5.151,0.015-9.331-1.865-9.358-11.218 c-0.026-9.354,9.27-20.155,9.27-20.155S230.948,70.647,230.975,80.001z"></path><path fill="#3A312A" d="M221.61,92.771c-2.156,0-5.254-0.274-7.573-2.518c-2.15-2.079-3.201-5.414-3.215-10.196 c-0.026-9.8,9.238-20.68,9.633-21.138c0.284-0.33,0.697-0.521,1.133-0.521c0.418,0.03,0.85,0.188,1.136,0.516 c0.396,0.456,9.724,11.283,9.751,21.083c0.014,4.781-1.02,8.122-3.156,10.214c-2.334,2.283-5.475,2.555-7.634,2.561 C221.66,92.771,221.636,92.771,221.61,92.771z M221.599,62.296c-2.402,3.149-7.795,10.975-7.776,17.754 c0.011,3.874,0.785,6.582,2.3,8.048c1.181,1.142,2.93,1.674,5.501,1.674c0.018,0,0.035,0,0.054,0 c2.6-0.007,4.361-0.549,5.543-1.705c1.507-1.475,2.266-4.187,2.255-8.062C229.455,73.227,224.019,65.432,221.599,62.296z"></path><path fill="#FCE8CB" d="M225.263,115.235c0,21.799-15.47,41.214-28.541,53.728c-10.356,9.915-25.32,9.915-35.677,0 c-13.071-12.514-28.541-31.929-28.541-53.728c0-37.744,20.765-50.869,46.379-50.869S225.263,77.49,225.263,115.235z"></path><path fill="#3A312A" d="M178.884,177.899c-6.703,0-13.406-2.618-18.875-7.852c-13.232-12.668-29.004-32.461-29.004-54.813 c0-33.771,17.004-52.369,47.88-52.369c30.875,0,47.879,18.599,47.879,52.369c0,22.354-15.772,42.146-29.004,54.813 C192.291,175.281,185.588,177.899,178.884,177.899z M178.885,65.865c-20.474,0-44.88,8.566-44.88,49.369 c0,21.293,15.27,40.381,28.078,52.646c9.735,9.317,23.867,9.32,33.602-0.001c12.809-12.263,28.078-31.35,28.078-52.645 C223.764,74.431,199.358,65.865,178.885,65.865z"></path><path fill-rule="evenodd" clip-rule="evenodd" fill="#87796F" d="M159.256,171.454c6.151,2.119,15.475,0.078,19.469-5.563 c0.009,0,0.012,0,0.022,0c3.995,5.641,13.318,7.682,19.469,5.563c7.829-2.698,12.001-10.953,11.231-18.938 c-1.206-12.487-13.322-24.914-22.56-31.889c-0.039-0.029-0.083-0.062-0.133-0.097c-4.781-3.412-11.248-3.411-16.032-0.003 c-0.051,0.036-0.097,0.07-0.137,0.1c-9.238,6.975-21.354,19.402-22.56,31.889C147.254,160.501,151.427,168.757,159.256,171.454z"></path><path fill="#3A312A" d="M164.592,173.778c-2.079,0-4.077-0.304-5.824-0.906c-8.1-2.79-13.131-11.221-12.235-20.501 c1.493-15.474,18.096-29.125,23.148-32.941l0.171-0.125c5.319-3.787,12.462-3.786,17.773,0.005l0.162,0.117 c5.057,3.819,21.659,17.471,23.152,32.944c0.896,9.28-4.135,17.711-12.235,20.501c-6.01,2.069-15.006,0.62-19.968-4.636 C175.216,171.964,169.665,173.778,164.592,173.778z M178.735,119.465c-2.504,0-5.006,0.762-7.144,2.284l-0.102,0.074 c-9.904,7.48-20.878,19.508-21.971,30.837c-0.75,7.768,3.551,15.076,10.226,17.376l0,0c5.394,1.858,14.131,0.109,17.758-5.012 c0.563-0.793,1.906-0.793,2.469,0c3.627,5.12,12.366,6.868,17.757,5.012c6.676-2.3,10.977-9.607,10.226-17.376 c-1.093-11.329-12.066-23.357-21.971-30.836l-0.093-0.067C183.749,120.229,181.242,119.465,178.735,119.465z"></path><path fill="#3A312A" d="M169.37,100.556c0,2.645-2.145,4.79-4.79,4.79c-2.645,0-4.79-2.145-4.79-4.79c0-2.645,2.145-4.79,4.79-4.79 C167.226,95.766,169.37,97.91,169.37,100.556z"></path><path fill="#F59689" d="M163.27,117.222c0,3.862-4.19,6.993-9.359,6.993c-5.169,0-9.359-3.131-9.359-6.993 c0-3.862,4.191-6.993,9.359-6.993C159.08,110.229,163.27,113.359,163.27,117.222z"></path><path fill="#3A312A" d="M188.398,100.924c0,2.645,2.145,4.79,4.79,4.79c2.645,0,4.79-2.145,4.79-4.79c0-2.645-2.145-4.79-4.79-4.79 C190.543,96.134,188.398,98.279,188.398,100.924z"></path><path fill="#F59689" d="M194.498,117.59c0,3.862,4.19,6.993,9.359,6.993c5.169,0,9.359-3.131,9.359-6.993 c0-3.862-4.19-6.993-9.359-6.993C198.689,110.598,194.498,113.728,194.498,117.59z"></path><g><path fill="#695B51" d="M192.207,153.461c-0.019,4.414-6.015,11.518-13.371,11.486c-7.357-0.032-13.289-7.189-13.269-11.603 c0.019-4.414,5.999-7.966,13.355-7.934C186.278,145.443,192.226,149.047,192.207,153.461z"></path><path fill="#3A312A" d="M178.885,166.446c-0.019,0-0.036,0-0.056,0c-3.724-0.017-7.432-1.645-10.441-4.585 c-2.677-2.615-4.332-5.881-4.32-8.524c0.012-2.682,1.666-5.139,4.659-6.917c2.753-1.635,6.329-2.521,10.202-2.51 c3.825,0.017,7.44,0.939,10.179,2.6c2.979,1.805,4.611,4.275,4.6,6.958C193.684,158.607,187.04,166.446,178.885,166.446z M178.821,146.91c-3.255,0-6.292,0.74-8.563,2.089c-2.052,1.219-3.185,2.764-3.191,4.351c-0.008,1.804,1.365,4.361,3.417,6.365 c1.418,1.387,4.391,3.714,8.358,3.731c0.014,0,0.029,0,0.044,0c6.688,0.001,11.806-6.649,11.82-9.992 c0.007-1.587-1.113-3.143-3.154-4.379c-2.28-1.382-5.348-2.15-8.638-2.165C178.884,146.91,178.852,146.91,178.821,146.91z"></path></g><path fill="#FCE8CB" d="M79.596,203.304c0.38,3.808,1.006,7.235,1.886,10.277c0.176,0.693,0.354,1.385,0.545,2.049 c-2.797,2.442-4.51,5.643-4.51,9.158c0,5.022,3.466,9.424,8.656,11.827c1.753,0.817,3.703,1.408,5.781,1.714 c1.093,0.158,2.216,0.246,3.368,0.246c1.152,0,2.275-0.089,3.368-0.246c2.078-0.305,4.028-0.896,5.781-1.714 c0.201-0.093,0.395-0.195,0.591-0.294c6.84,1.78,14.647,2.253,22.94,2.253c8.293,0,16.099-0.473,22.94-2.253 c0.196,0.099,0.389,0.201,0.591,0.294c1.753,0.817,3.703,1.408,5.78,1.714c1.093,0.158,2.216,0.246,3.368,0.246 s2.275-0.089,3.368-0.246c2.078-0.305,4.028-0.896,5.781-1.714c5.19-2.403,8.656-6.805,8.656-11.827 c0-3.516-1.714-6.716-4.51-9.158c0.192-0.664,0.369-1.354,0.545-2.047c0.949-3.281,1.617-6.991,1.983-11.168 c0.392-3.537,0.614-7.254,0.614-11.109c0-16.231-3.714-30.266-9.12-37.039c-8.832-18.176-23.447-30.068-39.994-30.068 c-16.547,0-31.162,11.893-39.994,30.068c-5.274,6.608-8.929,20.137-9.104,35.867L79.596,203.304z"></path><path fill="#3A312A" d="M160.679,240.074c-1.17,0-2.375-0.088-3.582-0.262c-2.189-0.322-4.273-0.94-6.2-1.839 c-0.043-0.02-0.086-0.04-0.129-0.061c-5.999,1.493-13.058,2.161-22.768,2.161s-16.769-0.668-22.768-2.161 c-0.045,0.021-0.089,0.042-0.135,0.063c-1.921,0.896-4.005,1.514-6.189,1.836c-2.426,0.348-4.759,0.348-7.169,0 c-2.188-0.321-4.273-0.94-6.2-1.839c-5.872-2.718-9.522-7.771-9.522-13.187c0-3.52,1.527-6.912,4.32-9.64 c-0.106-0.396-0.208-0.796-0.31-1.197c-0.884-3.054-1.535-6.602-1.924-10.498c-0.003-0.022-0.005-0.046-0.006-0.069l-0.693-13.171 c0.171-15.618,3.741-29.636,9.324-36.749c9.413-19.267,24.832-30.765,41.272-30.765c16.439,0,31.858,11.498,41.271,30.765 c5.767,7.343,9.343,21.815,9.343,37.843c0,3.75-0.209,7.543-0.622,11.273c-0.365,4.166-1.05,8.02-2.032,11.419 c-0.096,0.374-0.194,0.762-0.298,1.15c2.794,2.728,4.321,6.118,4.321,9.639c0,5.415-3.65,10.469-9.526,13.189 c-1.923,0.896-4.008,1.516-6.191,1.837C163.055,239.986,161.85,240.074,160.679,240.074z M150.939,234.821 c0.232,0,0.463,0.054,0.674,0.16l0.157,0.079c0.128,0.066,0.256,0.131,0.388,0.191c1.669,0.778,3.474,1.313,5.371,1.592 c2.122,0.305,4.176,0.305,6.304,0c1.892-0.278,3.696-0.813,5.36-1.589c4.807-2.225,7.79-6.235,7.79-10.468 c0-2.926-1.42-5.777-3.997-8.028c-0.439-0.384-0.617-0.987-0.454-1.548c0.188-0.647,0.36-1.323,0.533-2 c0.941-3.259,1.59-6.921,1.941-10.928c0.404-3.655,0.607-7.337,0.607-10.978c0-15.241-3.451-29.412-8.792-36.104 c-0.069-0.086-0.129-0.181-0.178-0.28c-8.892-18.299-23.338-29.224-38.644-29.224s-29.753,10.925-38.645,29.224 c-0.049,0.1-0.108,0.194-0.178,0.28c-5.246,6.573-8.609,19.964-8.775,34.947l0.689,13.04c0.371,3.702,0.986,7.058,1.831,9.975 c0.184,0.725,0.357,1.4,0.545,2.05c0.161,0.56-0.016,1.162-0.455,1.545c-2.577,2.25-3.996,5.102-3.996,8.028 c0,4.232,2.983,8.243,7.786,10.466c1.668,0.777,3.473,1.313,5.369,1.591c2.118,0.305,4.172,0.305,6.304,0 c1.893-0.278,3.697-0.813,5.36-1.589c0.138-0.063,0.266-0.129,0.394-0.194l0.157-0.079c0.326-0.165,0.697-0.204,1.052-0.112 c5.86,1.525,12.819,2.205,22.562,2.205s16.701-0.68,22.562-2.205C150.686,234.837,150.812,234.821,150.939,234.821z"></path><path fill="#FCE8CB" d="M124.248,191.306c0,9.099-1.172,17.499-3.141,24.324c2.797,2.442,4.51,5.643,4.51,9.158 c0,5.022-3.466,9.424-8.656,11.827c-1.753,0.817-3.703,1.408-5.781,1.714c-1.093,0.158-2.216,0.246-3.368,0.246 c-1.152,0-2.275-0.089-3.368-0.246c-2.078-0.305-4.028-0.896-5.781-1.714c-5.19-2.403-8.656-6.805-8.656-11.827 c0-3.516,1.714-6.716,4.51-9.158c-1.969-6.825-3.141-15.225-3.141-24.324H124.248z"></path><path fill="#3A312A" d="M107.812,240.074c-1.171,0-2.376-0.088-3.582-0.262c-2.188-0.321-4.273-0.94-6.2-1.839 c-5.872-2.718-9.522-7.771-9.522-13.187c0-3.52,1.526-6.909,4.317-9.637c-1.931-7.06-2.948-15.279-2.948-23.845 c0-0.828,0.672-1.5,1.5-1.5c0.828,0,1.5,0.672,1.5,1.5c0,8.651,1.065,16.919,3.082,23.907c0.161,0.56-0.016,1.163-0.455,1.546 c-2.577,2.25-3.996,5.102-3.996,8.028c0,4.232,2.983,8.243,7.786,10.466c1.668,0.777,3.473,1.313,5.369,1.591 c2.119,0.305,4.174,0.305,6.303,0c1.893-0.278,3.698-0.813,5.361-1.589c4.807-2.226,7.79-6.235,7.79-10.468 c0-2.926-1.42-5.777-3.997-8.028c-0.439-0.383-0.616-0.986-0.455-1.546c2.017-6.987,3.083-15.254,3.083-23.907 c0-0.828,0.672-1.5,1.5-1.5c0.828,0,1.5,0.672,1.5,1.5c0,8.566-1.018,16.787-2.949,23.845c2.792,2.727,4.318,6.118,4.318,9.637 c0,5.415-3.65,10.468-9.526,13.189c-1.923,0.896-4.008,1.516-6.192,1.837C110.187,239.986,108.983,240.074,107.812,240.074z"></path><path fill="#FCE8CB" d="M164.623,191.306c0,9.099-1.172,17.499-3.141,24.324c2.797,2.442,4.51,5.643,4.51,9.158 c0,5.022-3.466,9.424-8.656,11.827c-1.753,0.817-3.703,1.408-5.781,1.714c-1.093,0.158-2.216,0.246-3.368,0.246 s-2.275-0.089-3.368-0.246c-2.078-0.305-4.028-0.896-5.781-1.714c-5.19-2.403-8.656-6.805-8.656-11.827 c0-3.516,1.714-6.716,4.51-9.158c-1.97-6.825-3.142-15.225-3.142-24.324H164.623z"></path><path fill="#3A312A" d="M148.187,240.074c-1.17,0-2.375-0.088-3.582-0.262c-2.189-0.322-4.273-0.94-6.2-1.839 c-5.872-2.719-9.523-7.771-9.523-13.187c0-3.518,1.526-6.909,4.318-9.637c-1.931-7.058-2.949-15.278-2.949-23.845 c0-0.828,0.672-1.5,1.5-1.5c0.828,0,1.5,0.672,1.5,1.5c0,8.653,1.066,16.92,3.083,23.907c0.161,0.56-0.016,1.163-0.455,1.546 c-2.577,2.251-3.997,5.102-3.997,8.028c0,4.232,2.983,8.242,7.786,10.466c1.667,0.777,3.472,1.313,5.369,1.591 c2.121,0.305,4.173,0.305,6.304,0c1.892-0.278,3.696-0.813,5.36-1.589c4.807-2.225,7.79-6.235,7.79-10.468 c0-2.927-1.419-5.778-3.996-8.028c-0.439-0.383-0.616-0.986-0.455-1.546c2.017-6.988,3.082-15.256,3.082-23.907 c0-0.828,0.672-1.5,1.5-1.5c0.828,0,1.5,0.672,1.5,1.5c0,8.565-1.018,16.785-2.948,23.845c2.791,2.727,4.317,6.117,4.317,9.637 c0,5.415-3.65,10.469-9.526,13.189c-1.923,0.896-4.008,1.516-6.191,1.837C150.562,239.986,149.357,240.074,148.187,240.074z"></path><path fill="#FCE8CB" d="M99.887,59.11c0.055,19.651-8.706,23.649-19.527,23.679c-10.821,0.03-19.604-3.918-19.66-23.569 c-0.055-19.651,19.474-42.345,19.474-42.345S99.832,39.458,99.887,59.11z"></path><path fill="#3A312A" d="M80.241,84.289c-6.688,0-11.389-1.534-14.791-4.826c-4.179-4.042-6.223-10.663-6.249-20.239 c-0.023-8.427,3.317-18.29,9.93-29.317c4.885-8.146,9.704-13.774,9.907-14.01c0.284-0.33,0.697-0.52,1.133-0.521 c0.001,0,0.003,0,0.004,0c0.434,0,0.847,0.188,1.132,0.516c0.204,0.234,5.055,5.836,9.985,13.954 c6.675,10.989,10.071,20.834,10.095,29.261l0,0c0.027,9.576-1.979,16.208-6.136,20.273c-3.403,3.331-8.134,4.892-14.887,4.91 C80.324,84.289,80.282,84.289,80.241,84.289z M80.182,19.236c-4.114,5.163-18.026,23.828-17.98,39.979 c0.024,8.724,1.77,14.642,5.335,18.091c2.825,2.733,6.917,3.999,12.82,3.982c5.921-0.017,9.987-1.305,12.797-4.054 c3.546-3.47,5.258-9.397,5.233-18.122l0,0C98.342,42.962,84.323,24.375,80.182,19.236z"></path><path fill="#87796F" d="M90.697,58.841c0.029,10.434-4.622,12.557-10.368,12.573C74.583,71.43,69.919,69.334,69.89,58.9 C69.86,48.465,80.23,36.416,80.23,36.416S90.667,48.407,90.697,58.841z"></path><path fill="#3A312A" d="M80.263,72.914c-3.743,0-6.395-0.878-8.34-2.76c-2.362-2.286-3.519-5.966-3.533-11.251 c-0.03-10.867,10.266-22.956,10.704-23.466c0.284-0.33,0.697-0.521,1.133-0.521c0.001,0,0.003,0,0.004,0 c0.434,0,0.847,0.188,1.132,0.516c0.44,0.507,10.804,12.537,10.834,23.406c0.015,5.284-1.12,8.971-3.47,11.269 c-1.946,1.905-4.614,2.797-8.395,2.808C80.31,72.914,80.285,72.914,80.263,72.914z M80.237,38.807 c-2.618,3.403-8.869,12.345-8.848,20.089c0.013,4.37,0.894,7.433,2.619,9.103c1.36,1.316,3.327,1.904,6.315,1.916 c2.948-0.008,4.952-0.628,6.305-1.951c1.716-1.679,2.58-4.746,2.567-9.117C89.175,51.102,82.874,42.195,80.237,38.807z"></path><path fill="#FCE8CB" d="M162.037,37.626c-3.323,6.761-5.945,14.381-5.925,21.595c0.055,19.651,8.839,23.599,19.66,23.569 c10.821-0.03,19.582-4.028,19.527-23.679c-0.055-19.651-19.712-42.235-19.712-42.235s-2.565,2.985-5.829,7.715L162.037,37.626z"></path><path fill="#3A312A" d="M175.662,84.289c-14.508,0-21.001-7.735-21.05-25.066c-0.018-6.528,2.027-14.017,6.079-22.26 c0.366-0.743,1.266-1.051,2.008-0.684c0.743,0.365,1.05,1.264,0.684,2.008c-3.846,7.823-5.787,14.864-5.77,20.928 c0.055,19.349,8.675,22.073,18.02,22.073c0.046,0,0.091,0,0.137,0c5.921-0.017,9.987-1.305,12.797-4.054 c3.546-3.47,5.258-9.397,5.233-18.122c-0.045-16.152-14.065-34.741-18.206-39.879c-1.041,1.304-2.707,3.464-4.601,6.208 c-0.471,0.681-1.403,0.853-2.087,0.382c-0.682-0.471-0.853-1.404-0.382-2.087c3.271-4.74,5.818-7.716,5.926-7.84 c0.284-0.33,0.697-0.521,1.133-0.523c0.002,0,0.003,0,0.005,0c0.434,0,0.847,0.188,1.132,0.516 c0.204,0.234,5.055,5.836,9.985,13.954c6.675,10.989,10.071,20.834,10.095,29.261c0.027,9.576-1.979,16.208-6.136,20.273 c-3.403,3.331-8.134,4.892-14.887,4.91C175.738,84.289,175.7,84.289,175.662,84.289z"></path><path fill="#87796F" d="M186.108,58.841c0.029,10.434-4.622,12.557-10.368,12.573c-5.746,0.016-10.41-2.08-10.439-12.514 c-0.029-10.434,10.34-22.484,10.34-22.484S186.079,48.407,186.108,58.841z"></path><path fill="#3A312A" d="M175.675,72.914c-3.744,0-6.396-0.878-8.341-2.76c-2.362-2.286-3.518-5.966-3.532-11.251 c-0.03-10.867,10.265-22.956,10.703-23.466c0.284-0.33,0.697-0.521,1.133-0.521c0.001,0,0.003,0,0.004,0 c0.434,0,0.847,0.188,1.132,0.516c0.44,0.507,10.805,12.537,10.835,23.406c0.015,5.284-1.12,8.971-3.47,11.269 c-1.946,1.905-4.614,2.797-8.395,2.808C175.722,72.914,175.697,72.914,175.675,72.914z M175.649,38.806 c-2.618,3.403-8.869,12.345-8.848,20.09c0.013,4.37,0.893,7.434,2.618,9.103c1.36,1.316,3.392,1.904,6.316,1.916 c2.948-0.008,4.952-0.628,6.305-1.951c1.716-1.679,2.58-4.746,2.567-9.117C184.587,51.088,178.286,42.19,175.649,38.806z"></path><path fill="#FCE8CB" d="M179.737,98.146c0,24.317-17.257,45.976-31.838,59.935c-11.553,11.06-28.245,11.06-39.798,0 c-14.581-13.959-31.838-35.618-31.838-59.935C76.263,56.041,99.426,41.4,128,41.4C156.574,41.4,179.737,56.041,179.737,98.146z"></path><path fill="#3A312A" d="M128,167.875c-7.437,0-14.87-2.903-20.937-8.712c-14.735-14.107-32.301-36.144-32.301-61.018 c0-20.146,5.255-35.37,15.619-45.248c9.049-8.625,21.706-12.998,37.618-12.998c15.913,0,28.569,4.373,37.619,12.998 c10.363,9.878,15.618,25.102,15.618,45.248c0,24.874-17.565,46.911-32.301,61.019C142.872,164.971,135.435,167.875,128,167.875z M128,42.899c-22.918,0-50.237,9.585-50.237,55.246c0,23.815,17.062,45.148,31.375,58.851c10.93,10.465,26.795,10.464,37.725,0.001 c14.314-13.703,31.375-35.036,31.375-58.852C178.237,52.484,150.918,42.899,128,42.899z"></path><path fill-rule="evenodd" clip-rule="evenodd" fill="#87796F" d="M106.104,160.86c6.861,2.364,17.262,0.087,21.719-6.205 c0.01,0,0.014,0,0.024,0c4.457,6.292,14.857,8.569,21.718,6.205c8.733-3.009,13.388-12.219,12.528-21.126 c-1.345-13.93-14.861-27.792-25.167-35.573c-0.043-0.033-0.093-0.069-0.148-0.108c-5.334-3.806-12.547-3.805-17.884-0.003 c-0.057,0.041-0.108,0.078-0.152,0.111c-10.305,7.781-23.822,21.644-25.166,35.573C92.716,148.641,97.37,157.851,106.104,160.86z"></path><path fill="#3A312A" d="M112.062,163.281c-2.301,0-4.513-0.336-6.447-1.003l0,0c-8.959-3.087-14.524-12.417-13.533-22.689 c1.661-17.193,20.134-32.381,25.756-36.627l0.187-0.136c5.874-4.185,13.761-4.182,19.625,0.005l0.148,0.106 c5.656,4.271,24.129,19.458,25.789,36.651c0.992,10.271-4.572,19.601-13.532,22.689c-6.705,2.31-16.76,0.659-22.219-5.261 C123.95,161.23,117.738,163.281,112.062,163.281z M106.592,159.442c6.074,2.088,15.919,0.117,20.007-5.654 c0.561-0.793,1.909-0.793,2.472,0c4.09,5.772,13.937,7.744,20.007,5.654c7.521-2.592,12.367-10.82,11.523-19.563 c-1.226-12.695-13.499-26.157-24.577-34.522l-0.105-0.077c-4.834-3.448-11.32-3.452-16.152-0.01l-0.118,0.087 c-11.078,8.364-23.352,21.826-24.578,34.522C94.225,148.622,99.071,156.851,106.592,159.442L106.592,159.442z"></path><path fill="#3A312A" d="M117.387,81.771c0,2.951-2.392,5.343-5.343,5.343c-2.951,0-5.343-2.392-5.343-5.343 c0-2.951,2.392-5.343,5.343-5.343C114.994,76.427,117.387,78.82,117.387,81.771z"></path><path fill="#F59689" d="M110.582,100.362c0,4.309-4.674,7.801-10.441,7.801c-5.766,0-10.441-3.493-10.441-7.801 c0-4.309,4.675-7.8,10.441-7.8C105.908,92.562,110.582,96.054,110.582,100.362z"></path><path fill="#3A312A" d="M138.613,82.182c0,2.951,2.392,5.343,5.343,5.343c2.951,0,5.343-2.393,5.343-5.343 c0-2.951-2.392-5.343-5.343-5.343C141.005,76.838,138.613,79.23,138.613,82.182z"></path><path fill="#F59689" d="M145.418,100.773c0,4.309,4.674,7.801,10.441,7.801c5.766,0,10.441-3.493,10.441-7.801 c0-4.308-4.674-7.8-10.441-7.8C150.092,92.973,145.418,96.465,145.418,100.773z"></path><g><path fill="#695B51" d="M142.859,140.865c-0.021,4.924-6.71,12.849-14.916,12.813c-8.206-0.036-14.824-8.019-14.802-12.943 c0.022-4.924,6.692-8.886,14.898-8.85C136.245,131.921,142.88,135.942,142.859,140.865z"></path><path fill="#3A312A" d="M127.999,155.178c-0.021,0-0.041,0-0.063,0c-9.03-0.04-16.32-8.772-16.296-14.45 c0.026-5.814,7.17-10.343,16.284-10.343c0.04,0,0.08,0,0.121,0c9.173,0.04,16.339,4.646,16.313,10.487 c-0.013,2.902-1.871,6.482-4.85,9.342C136.173,153.417,132.087,155.178,127.999,155.178z M127.931,133.385 c-7.197,0-13.271,3.355-13.29,7.356c-0.019,4.286,6.194,11.405,13.31,11.437c0.017,0,0.034,0,0.051,0 c4.462,0,7.822-2.584,9.431-4.129c2.341-2.246,3.919-5.136,3.928-7.19c0.018-4.02-6.085-7.441-13.327-7.474 C127.999,133.385,127.964,133.385,127.931,133.385z"></path></g><path fill="#D7E057" d="M47.697,202.73c0,0,3.408,12.659,13.222,13.246c0,0-13.1,4.525-13.321,14.202 c0,0-2.578-13.572-12.925-14.059C34.673,216.119,46.724,214.294,47.697,202.73z"></path><path fill="#3A312A" d="M47.597,231.678c-0.713,0-1.335-0.506-1.473-1.218c-0.023-0.124-2.494-12.417-11.522-12.843 c-0.77-0.036-1.388-0.65-1.428-1.421c-0.04-0.77,0.511-1.444,1.273-1.561c0.441-0.068,10.895-1.816,11.754-12.032 c0.062-0.726,0.635-1.301,1.359-1.367c0.732-0.061,1.394,0.399,1.584,1.102c0.031,0.116,3.259,11.626,11.863,12.142 c0.714,0.043,1.298,0.584,1.396,1.292c0.098,0.708-0.318,1.388-0.994,1.622c-0.121,0.042-12.118,4.311-12.313,12.819 c-0.018,0.767-0.611,1.395-1.375,1.46C47.681,231.676,47.639,231.678,47.597,231.678z M39.856,215.948 c3.878,1.969,6.229,5.746,7.586,8.877c2.026-4.021,5.942-6.787,8.949-8.428c-4.134-1.842-6.783-5.651-8.334-8.723 C46.265,212.035,42.787,214.544,39.856,215.948z"></path><path fill="#D7E057" d="M25.999,219.71c0,0,2.411,8.954,9.352,9.369c0,0-9.266,3.201-9.422,10.045c0,0-1.824-9.6-9.142-9.944 C16.786,229.181,25.31,227.889,25.999,219.71z"></path><path fill="#3A312A" d="M25.928,240.625c-0.714,0-1.337-0.507-1.473-1.22c-0.016-0.082-1.704-8.442-7.739-8.727 c-0.771-0.036-1.388-0.65-1.428-1.421c-0.04-0.77,0.511-1.444,1.273-1.561c0.296-0.047,7.363-1.242,7.942-8.113 c0.062-0.726,0.636-1.303,1.361-1.368c0.721-0.063,1.392,0.399,1.582,1.102l0,0c0.021,0.079,2.226,7.92,7.993,8.266 c0.714,0.043,1.299,0.584,1.396,1.293c0.097,0.709-0.32,1.389-0.997,1.622c-0.08,0.028-8.281,2.952-8.411,8.661 c-0.018,0.768-0.611,1.397-1.376,1.461C26.011,240.623,25.969,240.625,25.928,240.625z M21.408,229.098 c2.107,1.332,3.523,3.395,4.447,5.279c1.376-2.232,3.516-3.871,5.365-4.972c-2.288-1.27-3.885-3.351-4.941-5.225 C25.105,226.468,23.264,228.057,21.408,229.098z"></path><path fill="#D7E057" d="M25.999,193.053c0,0,2.411,8.954,9.352,9.37c0,0-9.266,3.201-9.422,10.045c0,0-1.824-9.6-9.142-9.944 C16.786,202.523,25.31,201.232,25.999,193.053z"></path><path fill="#3A312A" d="M25.928,213.968c-0.714,0-1.337-0.507-1.473-1.22c-0.016-0.082-1.704-8.442-7.739-8.727 c-0.771-0.036-1.388-0.65-1.428-1.421c-0.04-0.77,0.511-1.444,1.273-1.561c0.296-0.047,7.363-1.243,7.942-8.113 c0.062-0.726,0.636-1.303,1.361-1.368c0.721-0.061,1.392,0.399,1.582,1.102l0,0c0.021,0.079,2.226,7.92,7.993,8.265 c0.714,0.042,1.299,0.584,1.396,1.293c0.097,0.709-0.32,1.388-0.996,1.622c-0.081,0.028-8.282,2.953-8.412,8.662 c-0.018,0.768-0.611,1.397-1.376,1.461C26.011,213.966,25.969,213.968,25.928,213.968z M21.408,202.44 c2.107,1.332,3.523,3.394,4.447,5.279c1.376-2.232,3.516-3.872,5.365-4.973c-2.287-1.269-3.885-3.35-4.941-5.224 C25.105,199.81,23.264,201.398,21.408,202.44z"></path><g><path fill="#3A312A" d="M101.554,239.198c-0.828,0-1.5-0.672-1.5-1.5V226.5c0-0.828,0.672-1.5,1.5-1.5s1.5,0.672,1.5,1.5v11.198 C103.054,238.526,102.382,239.198,101.554,239.198z"></path></g><g><path fill="#3A312A" d="M114.07,239.198c-0.828,0-1.5-0.672-1.5-1.5V226.5c0-0.828,0.672-1.5,1.5-1.5s1.5,0.672,1.5,1.5v11.198 C115.57,238.526,114.898,239.198,114.07,239.198z"></path></g><g><path fill="#3A312A" d="M141.93,239.198c-0.828,0-1.5-0.672-1.5-1.5V226.5c0-0.828,0.672-1.5,1.5-1.5s1.5,0.672,1.5,1.5v11.198 C143.43,238.526,142.758,239.198,141.93,239.198z"></path></g><g><path fill="#3A312A" d="M154.446,239.198c-0.828,0-1.5-0.672-1.5-1.5V226.5c0-0.828,0.672-1.5,1.5-1.5s1.5,0.672,1.5,1.5v11.198 C155.946,238.526,155.274,239.198,154.446,239.198z"></path></g></g></svg>