<!-- icon666.com - MILLIONS vector ICONS FREE --><svg version="1.1" id="Capa_1" xmlns="http://www.w3.org/2000/svg" xmlns:xlink="http://www.w3.org/1999/xlink" x="0px" y="0px" viewBox="0 0 512 512" style="enable-background:new 0 0 512 512;" xml:space="preserve"><path style="fill:#F3CE72;" d="M328.555,169.384l62.443-98.465c6.211-9.793,19.186-12.698,28.981-6.487 c9.794,6.211,12.699,19.187,6.488,28.981l-6.763,10.664l14.413-2.294c11.451-1.817,22.216,5.984,24.04,17.439 c1.823,11.453-5.984,22.217-17.438,24.04l-51.013,8.12l-25.682,40.496c-3.999,6.306-10.801,9.756-17.754,9.756 c-3.846,0-7.738-1.057-11.227-3.269C325.248,192.154,322.343,179.179,328.555,169.384z"></path><path style="opacity:0.1;enable-background:new ;" d="M328.555,169.384l18.965-29.905c12.951,5.856,24.626,14.049,34.493,24.033 l-17.989,28.367c-3.999,6.306-10.801,9.756-17.754,9.756c-3.846,0-7.738-1.057-11.227-3.269 C325.248,192.154,322.343,179.179,328.555,169.384z"></path><g style="opacity:0.1;"><path d="M415.316,134.383c-3.623,0-6.81-2.631-7.397-6.322c-0.651-4.091,2.137-7.935,6.228-8.586l15.338-2.441 c4.085-0.648,7.935,2.138,8.585,6.228c0.651,4.091-2.137,7.935-6.228,8.586l-15.338,2.441 C416.105,134.352,415.708,134.383,415.316,134.383z"></path><path d="M385.345,121.06c-1.374,0-2.764-0.377-4.009-1.167c-3.498-2.219-4.536-6.853-2.317-10.351l9.86-15.547 c2.218-3.498,6.851-4.537,10.35-2.317c3.498,2.219,4.536,6.853,2.317,10.351l-9.86,15.547 C390.258,119.828,387.829,121.06,385.345,121.06z"></path></g><path style="fill:#F3CE72;" d="M185.123,169.384L122.68,70.919c-6.211-9.793-19.186-12.698-28.981-6.487 C83.905,70.643,81,83.619,87.211,93.413l6.763,10.664l-14.413-2.294c-11.451-1.817-22.216,5.984-24.04,17.439 c-1.823,11.453,5.984,22.217,17.438,24.04l51.013,8.12l25.682,40.496c3.999,6.306,10.801,9.756,17.754,9.756 c3.846,0,7.738-1.057,11.227-3.269C188.43,192.154,191.334,179.179,185.123,169.384z"></path><path style="opacity:0.1;enable-background:new ;" d="M185.123,169.384l-18.965-29.905 c-12.951,5.856-24.626,14.049-34.493,24.033l17.989,28.367c3.999,6.306,10.801,9.756,17.754,9.756c3.846,0,7.738-1.057,11.227-3.269 C188.43,192.154,191.334,179.179,185.123,169.384z"></path><path style="fill:#7DD49B;" d="M393.534,342.607H118.465v-98.41c0-52.385,42.467-94.852,94.852-94.852h85.365 c52.385,0,94.852,42.467,94.852,94.852L393.534,342.607L393.534,342.607z"></path><path style="opacity:0.1;enable-background:new ;" d="M260.333,149.344h-47.016c-52.385,0-94.852,42.466-94.852,94.852v98.41 h97.794c0.52-11.414-31.216-46.419-35.679-64.048C158.281,190.477,198.298,157.34,260.333,149.344z"></path><path style="fill:#7DD49B;" d="M422.125,373.822l-0.836-0.424c-7.998-4.059-9.985-13.018-4.901-20.236 c5.949-8.445,9.444-18.742,9.444-29.859l0,0c0-28.69-23.258-51.947-51.947-51.947h-28.516c-3.333,0-6.561-1.295-8.88-3.69 c-7.577-7.824-18.187-12.691-29.939-12.691c-11.752,0-22.362,4.867-29.939,12.691c-2.319,2.394-5.547,3.69-8.88,3.69h-23.463 c-3.333,0-6.561-1.295-8.88-3.69c-7.577-7.824-18.187-12.691-29.939-12.691c-11.751,0-22.362,4.867-29.939,12.691 c-2.319,2.394-5.547,3.69-8.88,3.69h-28.516c-28.69,0-51.947,23.258-51.947,51.947l0,0c0,10.995,3.42,21.189,9.251,29.582 c4.905,7.06,2.63,16.791-5.037,20.68l-0.502,0.255c-11.623,5.895-16.899,20.516-11.044,32.159 c4.175,8.301,12.553,13.093,21.252,13.093c3.587,0,7.229-0.814,10.652-2.534c8.817-4.43,17.438-9.457,25.742-14.959 c1.232-0.816,2.573,0.865,1.507,1.889l-0.376,0.362c-9.153,8.802-10.251,23.359-1.971,32.987c4.744,5.516,11.389,8.296,18.048,8.296 c5.892,0,11.795-2.179,16.396-6.564c7.591-7.237,14.791-15.043,21.477-23.253c1.262-1.549,3.706-0.093,2.945,1.754l-0.187,0.453 c-4.914,11.927,0.2,25.896,11.955,31.208c3.194,1.444,6.526,2.125,9.801,2.125c9.313,0,18.154-5.51,21.953-14.644 c1.668-4.01,3.35-8.325,5.014-12.865c4.429-12.083,21.484-12.083,25.912,0c1.664,4.54,3.346,8.854,5.014,12.865 c3.8,9.136,12.64,14.644,21.953,14.644c3.67,0,7.416-0.856,10.953-2.682c11.033-5.695,15.555-19.155,10.812-30.63 c-0.064-0.155-0.128-0.311-0.192-0.466c-0.759-1.844,1.68-3.311,2.939-1.766c6.687,8.211,13.888,16.018,21.48,23.256 c4.602,4.387,10.504,6.564,16.396,6.564c6.659,0,13.308-2.781,18.051-8.3c8.275-9.628,7.176-24.181-1.974-32.983l-0.377-0.362 c-1.065-1.024,0.276-2.705,1.508-1.889c8.304,5.502,16.924,10.529,25.741,14.959c3.424,1.721,7.065,2.534,10.652,2.534 c8.701,0,17.081-4.796,21.255-13.099C439.019,394.333,433.743,379.716,422.125,373.822z"></path><path style="opacity:0.5;fill:#FFFFFF;enable-background:new ;" d="M422.125,373.822l-0.836-0.424 c-7.998-4.059-9.985-13.018-4.901-20.236c5.949-8.445,9.444-18.742,9.444-29.859l0,0c0-28.69-23.258-51.947-51.947-51.947h-28.516 c-3.333,0-6.561-1.295-8.88-3.69c-7.577-7.824-18.187-12.691-29.939-12.691c-11.752,0-22.362,4.867-29.939,12.691 c-2.319,2.394-5.547,3.69-8.88,3.69h-23.463c-3.333,0-6.561-1.295-8.88-3.69c-7.577-7.824-18.187-12.691-29.939-12.691 c-11.751,0-22.362,4.867-29.939,12.691c-2.319,2.394-5.547,3.69-8.88,3.69h-28.516c-28.69,0-51.947,23.258-51.947,51.947l0,0 c0,10.995,3.42,21.189,9.251,29.582c4.905,7.06,2.63,16.791-5.037,20.68l-0.502,0.255c-11.623,5.895-16.899,20.516-11.044,32.159 c4.175,8.301,12.553,13.093,21.252,13.093c3.587,0,7.229-0.814,10.652-2.534c8.817-4.43,17.438-9.457,25.742-14.959 c1.232-0.816,2.573,0.865,1.507,1.889l-0.376,0.362c-9.153,8.802-10.251,23.359-1.971,32.987c4.744,5.516,11.389,8.296,18.048,8.296 c5.892,0,11.795-2.179,16.396-6.564c7.591-7.237,14.791-15.043,21.477-23.253c1.262-1.549,3.706-0.093,2.945,1.754l-0.187,0.453 c-4.914,11.927,0.2,25.896,11.955,31.208c3.194,1.444,6.526,2.125,9.801,2.125c9.313,0,18.154-5.51,21.953-14.644 c1.668-4.01,3.35-8.325,5.014-12.865c4.429-12.083,21.484-12.083,25.912,0c1.664,4.54,3.346,8.854,5.014,12.865 c3.8,9.136,12.64,14.644,21.953,14.644c3.67,0,7.416-0.856,10.953-2.682c11.033-5.695,15.555-19.155,10.812-30.63 c-0.064-0.155-0.128-0.311-0.192-0.466c-0.759-1.844,1.68-3.311,2.939-1.766c6.687,8.211,13.888,16.018,21.48,23.256 c4.602,4.387,10.504,6.564,16.396,6.564c6.659,0,13.308-2.781,18.051-8.3c8.275-9.628,7.176-24.181-1.974-32.983l-0.377-0.362 c-1.065-1.024,0.276-2.705,1.508-1.889c8.304,5.502,16.924,10.529,25.741,14.959c3.424,1.721,7.065,2.534,10.652,2.534 c8.701,0,17.081-4.796,21.255-13.099C439.019,394.333,433.743,379.716,422.125,373.822z"></path><path style="opacity:0.05;enable-background:new ;" d="M187.346,320.501c-11.457-4.405-18.874-31.456,0-41.942 c18.104-10.058,2.458-20.535-2.198-18.307c-3.568,1.995-6.814,4.499-9.637,7.414c-2.319,2.394-5.547,3.69-8.88,3.69h-28.516 c-28.69,0-51.947,23.258-51.947,51.947l0,0c0,10.995,3.42,21.189,9.251,29.582c4.905,7.06,2.63,16.791-5.037,20.68l-0.502,0.255 c-11.623,5.895-16.899,20.516-11.044,32.159c4.175,8.301,12.553,13.093,21.252,13.093c3.587,0,7.229-0.814,10.652-2.534 c8.817-4.43,17.438-9.457,25.742-14.959c1.232-0.816,2.573,0.865,1.507,1.889l-0.376,0.362c-9.153,8.802-10.251,23.359-1.971,32.987 c4.744,5.516,11.389,8.296,18.048,8.296c5.892,0,11.795-2.179,16.396-6.564c3.399-3.241,6.707-6.612,9.939-10.066 c-19.984,16.63-37.468-5.3-25.023-18.482c9.301-9.851,22.774-24.5,37-42.015C208.796,347.306,198.803,324.906,187.346,320.501z"></path><circle style="fill:#7DD49B;" cx="205.45" cy="296.66" r="18.1"></circle><circle style="opacity:0.15;enable-background:new ;" cx="205.45" cy="296.66" r="18.1"></circle><circle style="fill:#7DD49B;" cx="306.55" cy="296.66" r="18.1"></circle><circle style="opacity:0.15;enable-background:new ;" cx="306.55" cy="296.66" r="18.1"></circle><g><path style="fill:#485358;" d="M177.773,234.756c-4.142,0-7.5-3.357-7.5-7.5v-13.124c0-4.143,3.358-7.5,7.5-7.5s7.5,3.357,7.5,7.5 v13.124C185.273,231.398,181.915,234.756,177.773,234.756z"></path><path style="fill:#485358;" d="M335.904,234.756c-4.142,0-7.5-3.357-7.5-7.5v-13.124c0-4.143,3.358-7.5,7.5-7.5s7.5,3.357,7.5,7.5 v13.124C343.404,231.398,340.046,234.756,335.904,234.756z"></path><path style="fill:#485358;" d="M256.839,380.233c-10.157,0-19.816-4.399-26.499-12.069c-2.721-3.122-2.396-7.86,0.727-10.581 c3.123-2.722,7.86-2.396,10.582,0.728c3.834,4.4,9.371,6.923,15.191,6.923c5.82,0,11.357-2.523,15.191-6.923 c2.721-3.124,7.458-3.448,10.581-0.728c3.123,2.721,3.448,7.459,0.727,10.581C276.655,375.834,266.996,380.233,256.839,380.233z"></path></g><g><path style="fill:#7DD49B;" d="M504.498,435.945c-1.811,0-3.626-0.651-5.066-1.972c-26.248-24.06-37.864-60.624-30.314-95.422 c2.531-11.667-1.244-23.413-10.099-31.421c-8.854-8.006-20.92-10.585-32.275-6.898l-47.468,15.419 c-3.94,1.281-8.17-0.876-9.45-4.816c-1.279-3.939,0.877-8.171,4.816-9.45l47.468-15.419c16.522-5.366,34.082-1.615,46.97,10.039 c12.886,11.653,18.38,28.747,14.697,45.725c-6.423,29.607,3.459,60.715,25.791,81.186c3.053,2.799,3.26,7.543,0.461,10.597 C508.55,435.127,506.527,435.945,504.498,435.945z"></path><path style="fill:#7DD49B;" d="M7.502,435.945c-2.029,0-4.051-0.818-5.531-2.432c-2.799-3.054-2.592-7.798,0.461-10.597 c22.332-20.471,32.214-51.579,25.791-81.186c-3.684-16.978,1.811-34.072,14.697-45.725c12.887-11.654,30.446-15.408,46.97-10.039 l47.468,15.419c3.939,1.279,6.096,5.511,4.816,9.45c-1.28,3.939-5.512,6.095-9.45,4.816l-47.468-15.419 c-11.355-3.685-23.421-1.109-32.275,6.898c-8.854,8.008-12.63,19.754-10.099,31.421c7.55,34.798-4.066,71.361-30.314,95.422 C11.128,435.294,9.312,435.945,7.502,435.945z"></path><path style="fill:#7DD49B;" d="M256.001,85.789L256.001,85.789c-6.66,0-12.182,5.16-12.632,11.805l-3.507,51.751h32.279 l-3.507-51.751C268.182,90.949,262.661,85.789,256.001,85.789z"></path></g><path style="opacity:0.15;enable-background:new ;" d="M256.001,85.789L256.001,85.789c-6.66,0-12.182,5.16-12.632,11.805 l-3.507,51.751h32.279l-3.507-51.751C268.182,90.949,262.661,85.789,256.001,85.789z"></path><polygon style="opacity:0.1;enable-background:new ;" points="270.924,131.399 241.078,131.399 239.861,149.344 272.14,149.344 "></polygon><g style="opacity:0.1;"><path d="M98.361,134.383c-0.392,0-0.788-0.03-1.188-0.094l-15.338-2.441c-4.091-0.651-6.879-4.495-6.228-8.586 c0.651-4.092,4.495-6.882,8.586-6.228l15.338,2.441c4.091,0.651,6.879,4.495,6.228,8.586 C105.171,131.752,101.983,134.383,98.361,134.383z"></path><path d="M128.332,121.06c-2.483,0-4.913-1.232-6.341-3.484l-9.86-15.547c-2.219-3.498-1.181-8.132,2.317-10.351 c3.497-2.22,8.132-1.181,10.35,2.317l9.86,15.547c2.219,3.498,1.181,8.132-2.317,10.351 C131.096,120.684,129.706,121.06,128.332,121.06z"></path></g></svg>