<!-- icon666.com - MILLIONS vector ICONS FREE --><svg id="Layer_1" enable-background="new 0 0 511.213 511.213" viewBox="0 0 511.213 511.213" xmlns="http://www.w3.org/2000/svg"><g><path d="m255.606 31.606c-123.712 0-224 100.288-224 224s100.288 224 224 224 224-100.288 224-224-100.288-224-224-224zm0 400c-97.202 0-176-78.798-176-176s78.798-176 176-176 176 78.798 176 176-78.797 176-176 176z" fill="#f05475"></path><path d="m255.606 31.606c-123.712 0-224 100.288-224 224s100.288 224 224 224 224-100.288 224-224-100.288-224-224-224zm0 400c-97.202 0-176-78.798-176-176s78.798-176 176-176 176 78.798 176 176-78.797 176-176 176z" fill="#f05475"></path><path d="m255.606 31.606c-3.016 0-6.013.077-9 .195 119.537 4.726 215 103.108 215 223.805s-95.463 219.079-215 223.805c2.987.118 5.984.195 9 .195 123.712 0 224-100.288 224-224s-100.288-224-224-224z" fill="#d03582"></path><g fill="#d03582"><path d="m106.339 348.875-34.632 34.632c15.202 21.817 34.183 40.798 56 56l34.632-34.632c-22.642-14.178-41.823-33.359-56-56z"></path><path d="m383.507 71.706-34.632 34.632c22.641 14.177 41.823 33.359 56 56l34.632-34.632c-15.202-21.817-34.183-40.798-56-56z"></path></g><path d="m-68.248 232.979h647.71v45.255h-647.71z" fill="#f05475" transform="matrix(.707 -.707 .707 .707 -105.876 255.606)"></path><path d="m24.121 455.979h16.971v45.255h-16.971z" fill="#d03582" transform="matrix(.707 -.707 .707 .707 -328.876 163.237)"></path><path d="m-58.248 257.121h647.71v16.971h-647.71z" fill="#d03582" transform="matrix(.707 -.707 .707 .707 -110.018 265.606)"></path><path d="m511.213 42.606-42.607-42.606-72 72c-40.719-31.336-89.405-47.894-141-47.894-61.836 0-119.971 24.08-163.695 67.805s-67.805 101.86-67.805 163.695c0 51.594 16.558 100.282 47.894 141l-72 72 42.606 42.606 106.306-106.306c31.246 22.377 68.086 34.2 106.694 34.2 101.183 0 183.5-82.317 183.5-183.5 0-38.606-11.823-75.447-34.199-106.693l23.612-23.612c28.533 37.758 43.587 82.709 43.587 130.306 0 119.379-97.121 216.5-216.5 216.5-42.874 0-84.314-12.506-119.843-36.166l-8.314 12.484c38 25.306 82.316 38.682 128.158 38.682 61.836 0 119.971-24.08 163.695-67.805s67.805-101.859 67.805-163.695c0-51.594-16.558-100.28-47.894-140.999l66.697-66.698zm-472.107 213c0-119.379 97.122-216.5 216.5-216.5 47.596 0 92.548 15.055 130.306 43.588l-268.843 268.843c-19.614-28.245-29.963-61.312-29.963-95.931 0-92.911 75.589-168.5 168.5-168.5 29.927 0 59.316 7.943 84.991 22.973l7.578-12.945c-27.973-16.373-59.982-25.027-92.569-25.027-101.182 0-183.5 82.317-183.5 183.5 0 38.607 11.823 75.447 34.2 106.694l-23.612 23.612c-28.533-37.757-43.588-82.71-43.588-130.307zm385 0c0 92.911-75.589 168.5-168.5 168.5-34.619 0-67.686-10.349-95.931-29.962l234.47-234.469c19.613 28.246 29.961 61.314 29.961 95.931zm-381.5 234.394-21.394-21.394 447.394-447.393 21.394 21.393z"></path><g><g><path d="m224.979 270.734h16v15h-16z" fill="#fff" transform="matrix(.707 -.707 .707 .707 -128.502 246.217)"></path></g><g><path d="m247.606 248.107h16.001v14.999h-16.001z" fill="#fff" transform="matrix(.707 -.707 .707 .707 -105.876 255.623)"></path></g><g><path d="m270.234 225.478h16v15.001h-16z" fill="#fff" transform="matrix(.707 -.707 .707 .707 -83.248 264.979)"></path></g></g></g></svg>