<!-- icon666.com - MILLIONS vector ICONS FREE --><svg id="Capa_1" enable-background="new 0 0 511.612 511.612" viewBox="0 0 511.612 511.612" xmlns="http://www.w3.org/2000/svg"><g><g><path d="m361.904 370.675 10.593-17.736c6.369-10.665 17.876-17.195 30.298-17.195h33.851c2.754 0 4.986 2.232 4.986 4.986 0 17.432-14.132 31.564-31.564 31.564h-45.193-16.803z" fill="#fd8087"></path><path d="m373.739 404.764h34.292c15.05 0 27.251-12.201 27.251-27.251v-1.107c0-3.037-2.462-5.499-5.499-5.499h-49.519-38.685s7.5 24.712 8.077 24.712 24.083 9.145 24.083 9.145z" fill="#fe646f"></path><path d="m338.09 344.679 10.76 8.189c37.24 28.343 31.921 85.899-9.882 106.937l-86.057 43.31c-2.664 1.341-5.806 1.341-8.47 0l-86.057-43.31c-41.804-21.039-47.122-78.594-9.882-106.937l10.76-8.189 49.596-24.176h88.738z" fill="#fd8087"></path><path d="m203.935 459.805c-41.804-21.039-47.123-78.594-9.882-106.937l10.76-8.189 49.596-24.176h-45.552l-49.596 24.176-10.76 8.189c-37.24 28.343-31.921 85.899 9.882 106.937l86.057 43.311c2.664 1.341 5.806 1.341 8.47 0l18.541-9.331z" fill="#fe646f"></path><g><path d="m361.835 141.32 6.84 24.94h-239.06l5.9-24.94 21.33-91.4c7.13-30.56 38.39-48.91 68.55-40.25l19.86 5.71c2.23.64 4.61.64 6.84 0l19.86-5.71c30.16-8.66 61.42 9.69 68.55 40.25z" fill="#e8ad8c"></path></g><g><path d="m209.466 49.92c3.862-16.551 14.808-29.508 28.817-36.545l-12.888-3.705c-30.16-8.66-61.42 9.69-68.55 40.25l-21.33 91.4-5.9 24.94h52.621l5.9-24.94z" fill="#e19974"></path></g><g><g id="XMLID_190_"><g><path d="m361.835 141.32 6.84 24.94h-239.06l5.9-24.94 9.76-41.81h206.8z" fill="#e19974"></path></g></g></g><g><path d="m284.757 440.188v-80.278h-71.164v81.278l25.647 11.528h31.84z" fill="#efedef"></path><g><path d="m232.157 382.738v13.54h-18.563v44.91l23.996 10.786v-15.705c0-6.035 4.941-10.814 10.975-10.805h.111c11.751 0 23.571-2.665 34.168-7.697l1.914-.906v-34.123z" fill="#e5e1e5"></path><path d="m367.385 202.58c11.95 11.7 19.38 28 19.38 46.05 0 25.35-14.64 47.29-35.93 57.81-4.01 1.99-6.86 5.75-7.65 10.15l-5.1 28.09c-4.62 25.5-23.03 46.32-47.78 54.02l-6.55 2.04-7.33 3.47c-17.56 8.34-37.94 8.34-55.5 0l-7.33-3.47-6.55-2.04c-24.75-7.7-43.16-28.52-47.78-54.02l-5.1-28.09c-.79-4.4-3.64-8.16-7.65-10.15-21.29-10.52-35.93-32.46-35.93-57.81 0-18.05 7.43-34.35 19.38-46.05 1.54-1.51 2.56-3.48 2.85-5.62l2.7-19.64 1.12-23.47h224.34l.86 23.47 2.7 19.64c.29 2.14 1.31 4.11 2.85 5.62z" fill="#f9f7f8"></path></g><path d="m266.103 400.74-6.55-2.04c-24.75-7.7-43.16-28.52-47.78-54.02l-5.1-28.09c-.79-4.4-3.64-8.16-7.65-10.15-3.395-1.678-6.622-3.646-9.647-5.872-2.077-1.528-1.572-4.749.878-5.555 19.49-6.409 33.603-24.776 33.603-46.383 0-20.428-12.613-37.962-30.46-45.231-3.158-1.286-2.309-6.05 1.101-6.074h.11l169.984.004c-.021-.122-.041-.245-.057-.368l-2.7-19.64-.86-23.47h-171.831-14.107-38.401l-1.12 23.47-2.7 19.64c-.29 2.14-1.31 4.11-2.85 5.62-11.95 11.7-19.38 28-19.38 46.05 0 25.35 14.64 47.29 35.93 57.81 4.01 1.99 6.86 5.75 7.65 10.15l5.1 28.09c4.62 25.5 23.03 46.32 47.78 54.02l6.55 2.04 7.33 3.47c17.066 8.105 36.886 8.293 54.103.644-.498-.221-1.1-.409-1.594-.644z" fill="#efedef"></path><path d="m361.835 141.32-4.201-17.996h-151.875c-6.861 0-11.932-6.391-10.373-13.072l2.507-10.742h-52.618l-9.55 40.908-.21.902-2.95 12.47-2.95 12.47h51.159 1.462 186.439z" fill="#dc8758"></path><path d="m366.918 177.324h-231.407c-10.004 0-19.789-2.924-28.153-8.411l-31.826-20.882c-7.85-5.151-10.038-15.69-4.887-23.54 5.151-7.85 15.689-10.038 23.539-4.887l31.824 20.881c3.235.967 6.267 1.873 9.502 2.839h226.327c3.236-.967 6.268-1.873 9.504-2.84l31.823-20.88c7.85-5.151 18.389-2.962 23.539 4.887 5.151 7.85 2.963 18.389-4.887 23.54l-36.071 23.668c-5.609 3.68-12.12 5.625-18.827 5.625z" fill="#e8ad8c"></path><g fill="#e5e1e5"><circle cx="175.037" cy="248.629" r="33.82"></circle><circle cx="322.314" cy="248.629" r="33.82"></circle><path d="m256.62 310.734h-15.889c-8.56 0-13.941-9.231-9.722-16.68l13.412-23.68c1.873-3.307 6.637-3.307 8.51 0l13.412 23.68c4.218 7.449-1.163 16.68-9.723 16.68z"></path></g></g></g><g><path d="m216.357 248.629c0-22.784-18.536-41.32-41.32-41.32s-41.32 18.536-41.32 41.32 18.536 41.321 41.32 41.321 41.32-18.537 41.32-41.321zm-41.32 26.321c-14.513 0-26.32-11.808-26.32-26.321s11.808-26.32 26.32-26.32 26.32 11.807 26.32 26.32-11.808 26.321-26.32 26.321z"></path><path d="m363.634 248.629c0-22.784-18.536-41.32-41.32-41.32s-41.32 18.536-41.32 41.32 18.536 41.321 41.32 41.321 41.32-18.537 41.32-41.321zm-41.32 26.321c-14.513 0-26.32-11.808-26.32-26.321s11.808-26.32 26.32-26.32 26.32 11.807 26.32 26.32-11.807 26.321-26.32 26.321z"></path><path d="m240.731 318.234h15.889c6.719 0 12.75-3.465 16.134-9.27 3.383-5.804 3.426-12.76.115-18.606l-13.412-23.68c-2.195-3.876-6.327-6.284-10.781-6.284s-8.586 2.408-10.781 6.284l-13.412 23.68c-3.311 5.846-3.268 12.802.115 18.606 3.383 5.805 9.414 9.27 16.133 9.27zm-3.196-20.483 11.141-19.67 11.141 19.67c.939 1.658.297 3.111-.022 3.66s-1.269 1.824-3.174 1.824h-15.889c-1.905 0-2.854-1.275-3.174-1.824s-.963-2.002-.023-3.66z"></path><path d="m291.213 346.518h-4.853v-.364c0-4.142-3.357-7.5-7.5-7.5s-7.5 3.358-7.5 7.5v.364h-14.325v-.364c0-4.142-3.357-7.5-7.5-7.5s-7.5 3.358-7.5 7.5v.364h-14.325v-.364c0-4.142-3.357-7.5-7.5-7.5s-7.5 3.358-7.5 7.5v.364h-4.854c-4.143 0-7.5 3.358-7.5 7.5s3.357 7.5 7.5 7.5h4.854v2.048c0 4.142 3.357 7.5 7.5 7.5s7.5-3.358 7.5-7.5v-2.048h14.325v2.048c0 4.142 3.357 7.5 7.5 7.5s7.5-3.358 7.5-7.5v-2.048h14.325v2.048c0 4.142 3.357 7.5 7.5 7.5s7.5-3.358 7.5-7.5v-2.048h4.853c4.143 0 7.5-3.358 7.5-7.5s-3.357-7.5-7.5-7.5z"></path><path d="m451.247 339.342c0-6.885-5.602-12.486-12.486-12.486h-33.851c-14.979 0-29.057 7.989-36.737 20.85l-4.931 8.256c-2.957-3.281-6.245-6.319-9.85-9.063l-7.102-5.405 4.271-23.564c.372-2.054 1.718-3.836 3.599-4.766 24.738-12.228 40.106-36.956 40.106-64.536 0-19.499-7.683-37.756-21.633-51.41-.374-.366-.605-.807-.67-1.276l-1.546-11.278c6.927-.578 13.589-2.854 19.445-6.696l36.071-23.667c11.295-7.411 14.455-22.63 7.044-33.925-7.412-11.294-22.63-14.453-33.925-7.043l-30.906 20.279-.378.113-12.546-53.755c-.941-4.034-4.983-6.54-9.008-5.599-4.034.941-6.541 4.975-5.6 9.008l2.015 8.632h-187.908l9.426-40.389c2.978-12.756 10.838-23.434 22.134-30.065 11.295-6.631 24.451-8.292 37.04-4.675l19.863 5.707c3.592 1.032 7.391 1.032 10.982 0l19.863-5.707c12.59-3.617 25.743-1.957 37.04 4.675 11.296 6.632 19.156 17.309 22.133 30.063l.091.39c.941 4.034 4.974 6.542 9.007 5.602 4.034-.94 6.542-4.973 5.603-9.007l-.092-.392c-3.921-16.798-14.271-30.858-29.146-39.592-14.875-8.732-32.195-10.918-48.777-6.156l-19.863 5.707c-.883.254-1.814.254-2.697 0l-19.863-5.707c-16.582-4.763-33.901-2.577-48.777 6.156-14.875 8.733-25.226 22.794-29.146 39.592l-19.956 85.512-.376-.112-30.908-20.28c-11.296-7.411-26.514-4.25-33.925 7.044-7.411 11.295-4.251 26.514 7.044 33.925l31.826 20.881c7.216 4.735 15.304 7.794 23.752 9.025l-1.609 11.737c-.064.468-.296.909-.67 1.275-13.95 13.653-21.633 31.911-21.633 51.41 0 27.58 15.368 52.308 40.106 64.536 1.881.93 3.227 2.711 3.599 4.765l4.271 23.565-7.102 5.405c-19.561 14.888-29.889 38.389-27.627 62.866 2.262 24.478 16.722 45.688 38.679 56.739l86.059 43.311c2.381 1.198 4.993 1.797 7.605 1.797s5.225-.599 7.606-1.797l31.569-15.888c3.699-1.862 5.189-6.371 3.327-10.071-1.861-3.701-6.37-5.189-10.071-3.328l-31.568 15.888c-.541.271-1.187.272-1.726 0l-86.058-43.311c-14.365-7.23-24.637-19.985-28.741-35.143h11.907c4.143 0 7.5-3.358 7.5-7.5s-3.357-7.5-7.5-7.5h-13.894c.056-17.297 8.05-33.498 22.016-44.127l1.829-1.392c7.909 22.99 26.239 41.04 49.946 48.416l1.275.397v22.517l-6.906-3.63c-3.669-1.93-8.201-.517-10.128 3.149-1.928 3.667-.518 8.201 3.149 10.128l28.187 14.816c8.854 4.654 18.567 6.981 28.28 6.981s19.427-2.327 28.28-6.981l29.906-15.72c3.667-1.927 5.077-6.462 3.149-10.128-1.927-3.666-6.459-5.077-10.128-3.149l-7.626 4.009v-22.301l.274-.085c23.707-7.376 42.037-25.426 49.946-48.417l1.829 1.392c15.417 11.734 23.558 30.257 21.774 49.549-.629 6.811-2.479 13.289-5.342 19.219h-15.061c-4.143 0-7.5 3.358-7.5 7.5s3.357 7.5 7.5 7.5h4.445c-4.175 4.186-9.053 7.747-14.528 10.502l-23.665 11.91c-3.699 1.862-5.189 6.371-3.327 10.071 1.317 2.619 3.961 4.13 6.705 4.13 1.134 0 2.284-.258 3.366-.802l23.665-11.91c21.206-10.673 35.417-30.824 38.401-54.241h27.29c19.162 0 34.751-15.589 34.751-34.751v-1.106c0-3.45-1.36-6.581-3.56-8.911 7.405-7.117 12.027-17.104 12.027-28.157zm-105.117-232.331 6.724 28.812h-208.358l6.724-28.812zm-76.153 332.948c-13.34 7.011-29.264 7.011-42.604 0l-6.28-3.301v-24.176c8.859 3.667 18.219 5.51 27.582 5.51 9.717 0 19.427-2.001 28.582-5.951v24.091zm18.098-48.421-6.546 2.036c-.337.105-.667.234-.986.386l-7.332 3.479c-15.592 7.397-33.479 7.397-49.07 0l-7.332-3.479c-.319-.152-.649-.28-.986-.385l-6.548-2.038c-22.158-6.894-38.494-25.361-42.634-48.196l-5.09-28.087c-1.216-6.705-5.594-12.513-11.712-15.537-19.586-9.681-31.753-29.256-31.753-51.088 0-15.431 6.082-29.882 17.125-40.69 2.737-2.679 4.526-6.216 5.039-9.959l1.804-13.156h34.053c4.143 0 7.5-3.358 7.5-7.5s-3.357-7.5-7.5-7.5h-40.595c-8.565 0-16.877-2.483-24.038-7.183l-31.827-20.881c-4.379-2.874-5.604-8.775-2.731-13.155 2.874-4.379 8.774-5.605 13.155-2.731l31.824 20.881c.607.399 1.27.707 1.967.916l9.502 2.839c.697.208 1.42.314 2.147.314h226.328c.728 0 1.45-.106 2.147-.314l9.503-2.84c.697-.208 1.36-.517 1.968-.916l31.822-20.88c4.378-2.874 10.28-1.648 13.155 2.731 2.873 4.38 1.647 10.281-2.731 13.155l-36.071 23.667c-4.384 2.876-9.472 4.396-14.714 4.396h-158.748c-4.143 0-7.5 3.358-7.5 7.5s3.357 7.5 7.5 7.5h147.127l1.804 13.155c.513 3.744 2.302 7.281 5.039 9.96 11.043 10.808 17.125 25.259 17.125 40.69 0 21.832-12.167 41.408-31.753 51.088-6.118 3.024-10.496 8.833-11.712 15.538l-5.09 28.085c-4.139 22.836-20.476 41.305-42.635 48.199zm92.976-36.14c4.988-8.353 14.13-13.541 23.858-13.541h31.206c-1.261 12.092-11.513 21.55-23.934 21.55h-31.918-3.996zm46.711 23.008c-.47 10.478-9.141 18.857-19.731 18.857h-26.955c-.536-6.507-1.958-12.843-4.204-18.857h3.392 31.918z"></path></g></g></svg>