<!-- icon666.com - MILLIONS vector ICONS FREE --><svg viewBox="-72 0 512 512" xmlns="http://www.w3.org/2000/svg"><path d="m48.425781 488.46875c-6.191406-58.269531 37.25-68.9375 37.25-96.195312v-24.046876h98.421875v120.242188zm0 0" fill="#9f6e50"></path><path d="m319.765625 488.46875c6.191406-58.269531-37.25-68.9375-37.25-96.195312v-24.046876h-98.417969v120.242188zm0 0" fill="#b57f5f"></path><path d="m160.046875 7.5 8.003906 130.929688h32.089844l8.003906-130.929688zm0 0" fill="#f4dbb3"></path><path d="m184.097656 7.5h-24.050781l8.003906 130.929688h16.046875zm0 0" fill="#eac89f"></path><path d="m208.144531 7.5h-48.097656l5.882813 96.195312h36.335937zm0 0" fill="#ff8086"></path><path d="m184.097656 7.5h-24.050781l5.882813 96.195312h18.167968zm0 0" fill="#e5646e"></path><path d="m336.378906 485.15625-82.792968-29.21875c-12.820313-4.527344-21.394532-16.644531-21.394532-30.238281v-25.410157h-96.191406v25.410157c0 13.597656-8.574219 25.714843-21.394531 30.238281l-82.792969 29.21875c-10.292969 3.636719-18.664062 10.589844-24.3125 19.34375h353.191406c-5.648437-8.753906-14.019531-15.710938-24.3125-19.34375zm0 0" fill="#e3aa75"></path><path d="m136 400.289062v25.410157c0 1.722656-.140625 3.417969-.40625 5.078125 14.976562 6.144531 31.335938 9.59375 48.503906 9.59375 17.164063 0 33.523438-3.449219 48.503906-9.59375-.265624-1.660156-.40625-3.355469-.40625-5.078125v-25.410157zm0 0" fill="#d29b6e"></path><path d="m184.097656 416.320312c-57.554687 0-104.210937-46.652343-104.210937-104.207031v-48.097656h208.417969v48.097656c0 57.550781-46.65625 104.207031-104.207032 104.207031zm0 0" fill="#f5b97d"></path><path d="m111.949219 312.113281c0-13.28125 10.769531-24.050781 24.050781-24.050781h152.304688v-24.046875h-208.417969v48.097656c0 57.554688 46.65625 104.210938 104.210937 104.210938 5.464844 0 10.792969-.546875 16.03125-1.359375-49.921875-7.730469-88.179687-50.765625-88.179687-102.851563zm0 0" fill="#e3aa75"></path><path d="m106.773438 458.699219-74.960938 26.457031c-10.292969 3.636719-18.664062 10.59375-24.324219 19.34375h176.609375c-33.335937 0-62.335937-18.507812-77.324218-45.800781zm0 0" fill="#ff8086"></path><path d="m336.378906 485.15625-74.960937-26.457031c-14.988281 27.292969-43.988281 45.800781-77.320313 45.800781h176.605469c-5.660156-8.75-14.03125-15.710938-24.324219-19.34375zm0 0" fill="#ff8086"></path><path d="m177.894531 135.90625c-68.984375 3.246094-122.054687 62.671875-122.054687 131.734375v84.550781c0 30.992188 25.121094 56.113282 56.109375 56.113282v-88.175782c-13.28125 0-24.046875-10.765625-24.046875-24.046875v-24.050781c0-4.425781 3.589844-8.015625 8.015625-8.015625h176.355469c4.425781 0 8.015624 3.589844 8.015624 8.015625v24.050781c0 13.28125-10.765624 24.046875-24.046874 24.046875v88.175782c30.988281 0 56.113281-25.121094 56.113281-56.113282v-88.175781c0-72.890625-60.804688-131.578125-134.460938-128.109375zm0 0" fill="#f9eac7"></path><path d="m87.902344 296.082031v-24.050781c0-4.425781 3.589844-8.015625 8.015625-8.015625h32.066406c0-58.285156 38.910156-107.410156 92.152344-123.015625-19.304688-5.648438-40.398438-7.082031-62.386719-2.546875-60.183594 12.414063-101.910156 67.734375-101.910156 129.183594v84.554687c0 30.992188 25.121094 56.113282 56.113281 56.113282v-88.175782c-13.285156 0-24.050781-10.765625-24.050781-24.046875zm0 0" fill="#f4dbb3"></path><path d="m213.410156 357.53125c2.949219-2.910156 2.980469-7.65625.074219-10.605469-2.910156-2.949219-7.660156-2.980469-10.609375-.070312-2.734375 2.699219-9.296875 5.855469-18.777344 5.855469-9.484375 0-16.042968-3.15625-18.78125-5.855469-2.949218-2.910157-7.699218-2.878907-10.609375.070312-2.90625 2.949219-2.875 7.695313.074219 10.605469 6.457031 6.371094 17.417969 10.175781 29.316406 10.175781 11.894532 0 22.855469-3.804687 29.3125-10.175781zm0 0"></path><path d="m143.5 296.082031v-8.019531c0-4.140625-3.359375-7.5-7.5-7.5s-7.5 3.359375-7.5 7.5v8.019531c0 4.140625 3.359375 7.5 7.5 7.5s7.5-3.359375 7.5-7.5zm0 0"></path><path d="m239.691406 296.082031v-8.019531c0-4.140625-3.355468-7.5-7.5-7.5-4.140625 0-7.5 3.359375-7.5 7.5v8.019531c0 4.140625 3.359375 7.5 7.5 7.5 4.144532 0 7.5-3.359375 7.5-7.5zm0 0"></path><path d="m366.996094 500.433594c-6.792969-10.523438-16.515625-18.253906-28.121094-22.347656l-11.125-3.925782c1.644531-28.410156-13.988281-43.710937-25.59375-55.066406-5.695312-5.574219-9.714844-9.660156-11.339844-13.546875 17.460938-11.351563 29.039063-31.019531 29.039063-53.355469v-88.175781c0-50.910156-28.09375-97.109375-73.316407-120.574219-3.675781-1.910156-8.203124-.476562-10.113281 3.203125-1.90625 3.675781-.472656 8.203125 3.203125 10.109375 40.234375 20.875 65.226563 61.976563 65.226563 107.261719v88.175781c0 24.253906-17.855469 44.417969-41.113281 48.035156v-73.5c13.789062-3.375 24.046874-15.835937 24.046874-30.644531v-32.066406c0-4.140625-3.355468-7.5-7.5-7.5h-192.386718c-4.140625 0-7.5 3.359375-7.5 7.5v32.066406c0 14.8125 10.261718 27.269531 24.046875 30.644531v1.417969c0 4.140625 3.359375 7.5 7.5 7.5 4.144531 0 7.5-3.359375 7.5-7.5v-8.015625c0-4.140625-3.355469-7.5-7.5-7.5-9.125 0-16.546875-7.421875-16.546875-16.546875v-24.566406h177.386718v24.566406c0 9.125-7.421874 16.546875-16.546874 16.546875-4.144532 0-7.5 3.359375-7.5 7.5v63.882813c-17.785157 16.007812-40.609376 24.808593-64.644532 24.808593-24.039062 0-46.859375-8.800781-64.644531-24.808593v-23.800781c0-4.144532-3.359375-7.5-7.5-7.5-4.144531 0-7.5 3.355468-7.5 7.5v40.019531c-23.257813-3.621094-41.113281-23.78125-41.113281-48.039063v-88.175781c0-66.585937 54.171875-120.757813 120.757812-120.757813 9.410156 0 18.78125 1.085938 27.847656 3.226563 4.03125.949219 8.070313-1.546875 9.019532-5.578125.953125-4.03125-1.542969-8.070312-5.574219-9.023438-2.453125-.578124-4.925781-1.082031-7.410156-1.523437l7.648437-122.390625c.128906-2.066406-.601562-4.09375-2.015625-5.605469-1.417969-1.507812-3.398437-2.363281-5.46875-2.363281h-48.097656c-2.070313 0-4.046875.855469-5.464844 2.363281-1.417969 1.511719-2.148437 3.539063-2.019531 5.605469l7.648438 122.394531c-63.507813 11.320313-111.871094 66.941407-111.871094 133.652344v88.175781c0 22.335938 11.578125 42.003906 29.035156 53.355469-1.621094 3.886719-5.644531 7.976563-11.335938 13.546875-11.609374 11.355469-27.238281 26.65625-25.597656 55.066406l-11.121094 3.925782c-11.605468 4.09375-21.332031 11.820312-28.121093 22.347656-2.246094 3.480468-1.246094 8.121094 2.234375 10.367187 1.257812.8125 2.667968 1.199219 4.058594 1.199219 2.464843 0 4.875-1.210938 6.3125-3.433594 4.972656-7.707031 12.0625-13.355468 20.507812-16.335937l69.152344-24.410157c17.511718 27.355469 48.007812 44.179688 80.632812 44.179688 32.675782 0 63.113282-16.8125 80.628906-44.179688l69.15625 24.410157c8.441407 2.980469 15.535157 8.628906 20.507813 16.335937 1.433594 2.222656 3.847656 3.433594 6.308594 3.433594 1.394531 0 2.800781-.386719 4.058593-1.199219 3.480469-2.246093 4.484376-6.886719 2.238282-10.367187zm-166.835938-485.433594-5.074218 81.191406h-21.980469l-5.074219-81.191406zm-26.117187 96.191406h20.105469l-1.085938 17.371094c-2.980469-.195312-5.972656-.304688-8.964844-.304688-3.015625 0-6.003906.109376-8.96875.304688zm82.199219 304.613282c7.40625 0 14.515624-1.285157 21.132812-3.621094 3.085938 6.652344 8.746094 12.207031 14.289062 17.628906 10.234376 10.015625 20.765626 20.332031 21.1875 39.089844l-56.769531-20.039063c-9.800781-3.460937-16.386719-12.769531-16.386719-23.164062v-16.664063c3.097657-1.78125 6.117188-3.71875 9.046876-5.800781v5.070313c0 4.144531 3.355468 7.5 7.5 7.5zm-179.714844 14.007812c5.542968-5.421875 11.207031-10.976562 14.289062-17.628906 6.617188 2.335937 13.726563 3.621094 21.132813 3.621094 4.144531 0 7.5-3.355469 7.5-7.5v-5.070313c2.929687 2.085937 5.953125 4.019531 9.050781 5.800781v16.664063c0 10.398437-6.585938 19.707031-16.390625 23.164062l-56.769531 20.039063c.421875-18.757813 10.957031-29.074219 21.1875-39.089844zm107.570312 67.1875c-26.335937 0-51.023437-13-66.042968-34.347656 15.257812-5.832032 25.445312-20.550782 25.445312-36.953125v-9.480469c12.789062 4.984375 26.515625 7.601562 40.597656 7.601562 14.082032 0 27.804688-2.617187 40.597656-7.601562v9.480469c0 16.40625 10.1875 31.125 25.449219 36.953125-15.019531 21.359375-39.671875 34.347656-66.046875 34.347656zm0 0"></path></svg>