<!-- icon666.com - MILLIONS vector ICONS FREE --><svg viewBox="0 0 60 60" xmlns="http://www.w3.org/2000/svg"><g id="024---Dungeon" fill="none"><g id="Layer_3" transform="translate(1 1)"><path id="Shape" d="m14 47v11h-13c-.55228475 0-1-.4477153-1-1v-5c0-2.7614237 2.23857625-5 5-5z" fill="#9f522d"></path><path id="Rectangle-path" d="m8 42h6v5h-6z" fill="#815a2c"></path><g fill="#9f522d"><path id="Shape" d="m14 34v8h-6c-1.10320187-.0032948-1.9967052-.8967981-2-2v-4c.0032948-1.1032019.89679813-1.9967052 2-2z"></path><path id="Shape" d="m14 21v8h-6c-1.10320187-.0032948-1.9967052-.8967981-2-2v-4c.0032948-1.1032019.89679813-1.9967052 2-2z"></path><path id="Shape" d="m20 10.6-5 5.4-3.89-3.54-.55-.5c-.3603106-.3568341-.5630258-.8428962-.5630258-1.35s.2027152-.99316595.5630258-1.35l2.7-2.7c.7457699-.74513645 1.9542301-.74513645 2.7 0z"></path></g><path id="Rectangle-path" d="m8 29h6v5h-6z" fill="#815a2c"></path><path id="Shape" d="m32.99 1.1-.13 1.29-.62 6.07-.07.64c-.0576135.51784768-.4990086.907314-1.02.9h-4.3c-.5209914.007314-.9623865-.38215232-1.02-.9l-.07-.64-.62-6.07-.13-1.29c-.0287936-.28558789.0665208-.56977905.2616877-.78025322.195167-.21047416.4713666-.32693534.7583123-.31974678h5.94c.2869457-.00718856.5631453.10927262.7583123.31974678.1951669.21047417.2904813.49466533.2616877.78025322z" fill="#9f522d"></path><path id="Shape" d="m15 16-1 5h-6l3.11-8.54z" fill="#815a2c"></path><path id="Shape" d="m25.76 8.46-5.76 2.14-4.04-4.04 9.18-4.17z" fill="#815a2c"></path><path id="Shape" d="m58 52v5c0 .5522847-.4477153 1-1 1h-13v-11h9c2.7614237 0 5 2.2385763 5 5z" fill="#9f522d"></path><path id="Shape" d="m53 47h-3c2.7614237 0 5 2.2385763 5 5v5c0 .5522847-.4477153 1-1 1h3c.5522847 0 1-.4477153 1-1v-5c0-2.7614237-2.2385763-5-5-5z" fill="#783e22"></path><path id="Rectangle-path" d="m44 42h6v5h-6z" fill="#815a2c"></path><path id="Rectangle-path" d="m47 42h3v5h-3z" fill="#624421"></path><path id="Shape" d="m52 36v4c-.0032948 1.1032019-.8967981 1.9967052-2 2h-6v-8h6c1.1032019.0032948 1.9967052.8967981 2 2z" fill="#9f522d"></path><path id="Shape" d="m50 34h-3c1.1032019.0032948 1.9967052.8967981 2 2v4c-.0032948 1.1032019-.8967981 1.9967052-2 2h3c1.1032019-.0032948 1.9967052-.8967981 2-2v-4c-.0032948-1.1032019-.8967981-1.9967052-2-2z" fill="#783e22"></path><path id="Shape" d="m52 23v4c-.0032948 1.1032019-.8967981 1.9967052-2 2h-6v-8h6c1.1032019.0032948 1.9967052.8967981 2 2z" fill="#9f522d"></path><path id="Shape" d="m50 21h-3c1.1032019.0032948 1.9967052.8967981 2 2v4c-.0032948 1.1032019-.8967981 1.9967052-2 2h3c1.1032019-.0032948 1.9967052-.8967981 2-2v-4c-.0032948-1.1032019-.8967981-1.9967052-2-2z" fill="#783e22"></path><path id="Shape" d="m47.44 11.96-.55.5-3.89 3.54-5-5.4 4.04-4.04c.7457699-.74513645 1.9542301-.74513645 2.7 0l2.7 2.7c.3603106.35683405.5630258.8428962.5630258 1.35s-.2027152.9931659-.5630258 1.35z" fill="#9f522d"></path><path id="Shape" d="m47.44 9.26-2.7-2.7c-.7457699-.74513645-1.9542301-.74513645-2.7 0l-.15.15 2.55 2.55c.3603106.35683405.5630258.8428962.5630258 1.35s-.2027152.9931659-.5630258 1.35l-.55.5-2.262 2.058 1.372 1.482 3.89-3.54.55-.5c.3603106-.3568341.5630258-.8428962.5630258-1.35s-.2027152-.99316595-.5630258-1.35z" fill="#783e22"></path><path id="Rectangle-path" d="m44 29h6v5h-6z" fill="#815a2c"></path><path id="Rectangle-path" d="m47 29h3v5h-3z" fill="#624421"></path><path id="Shape" d="m50 21h-6l-1-5 3.89-3.54z" fill="#815a2c"></path><path id="Shape" d="m46.89 12.46-2.253 2.05 2.363 6.49h3z" fill="#624421"></path><path id="Shape" d="m42.04 6.56-4.04 4.04-5.76-2.14.62-6.07z" fill="#815a2c"></path><path id="Shape" d="m40 25v33h-22v-33c0-6.0751322 4.9248678-11 11-11s11 4.9248678 11 11z" fill="#3f51b4"></path><path id="Shape" d="m44 21v37h-4v-33c0-6.0751322-4.9248678-11-11-11s-11 4.9248678-11 11v33h-4v-37l1-5 5-5.4 5.76-2.14.07.64c.0576135.51784768.4990086.907314 1.02.9h4.3c.5209914.007314.9623865-.38215232 1.02-.9l.07-.64 5.76 2.14 5 5.4z" fill="#3f51b4"></path><path id="Shape" d="m40 35v8h-10c-1.1045695 0-2-.8954305-2-2v-4c0-1.1045695.8954305-2 2-2z" fill="#9d9d9d"></path></g><g id="Layer_11" fill="#000"><path id="Shape" d="m54 47h-2v-3.184c1.1943509-.4222546 1.9947486-1.5492146 2-2.816v-4c-.0052514-1.2667854-.8056491-2.3937454-2-2.816v-3.368c1.1943509-.4222546 1.9947486-1.5492146 2-2.816v-4c-.0036834-1.3699873-.9349908-2.5634435-2.263-2.9l-2.679-7.357c.5867585-.5347988.928609-1.2867682.9458063-2.0804934.0171974-.7937251-.2917621-1.5597954-.8548063-2.1195066l-2.7-2.7c-.9334644-.93876147-2.3861812-1.12143349-3.523-.443l-8-3.63.059-.576c.0515851-.56445309-.1374272-1.12446594-.5205177-1.54220982-.3830906-.41774388-.9246831-.6544243-1.4914823-.65179018h-5.946c-.5686398-.00393212-1.1123623.23306539-1.4965464.65231385-.384184.41924847-.572911.98155104-.5194536 1.54768615l.059.576-8 3.63c-1.1371277-.67859097-2.5902093-.49592492-3.524.443l-2.7 2.7c-.5514017.5508975-.85838326 1.300211-.85198997 2.079628.00639327.7794171.32562547 1.5235939.88598997 2.065372.1.092.284-.574-2.622 7.408-1.32530509.3382968-2.25399022 1.5302053-2.258 2.898v4c.00525139 1.2667854.80564913 2.3937454 2 2.816v3.368c-1.19435087.4222546-1.99474861 1.5492146-2 2.816v4c.00525139 1.2667854.80564913 2.3937454 2 2.816v3.184h-2c-3.31233757.0033074-5.99669262 2.6876624-6 6v5c0 1.1045695.8954305 2 2 2h56c1.1045695 0 2-.8954305 2-2v-5c-.0033074-3.3123376-2.6876624-5.9966926-6-6zm-2-6c0 .5522847-.4477153 1-1 1h-5v-6h5c.5522847 0 1 .4477153 1 1zm-2 3v3h-4v-3zm-4-10v-3h4v3zm5-11c.550248.0048866.9951134.449752 1 1v4c0 .5522847-.4477153 1-1 1h-5v-6zm-16.285-18.123 6.6 3-2.568 2.563-4.434-1.648zm-1.715-2.877-.14 1.364-.679 6.626c-.0080723.00753353-.0190221.0111835-.03.01h-4.33l-.794-8zm-7.715 2.877.4 3.915-4.432 1.648-2.567-2.567zm-11.285 53.123h-12v-5c0-2.209139 1.790861-4 4-4h8zm0-11h-4v-3h4zm0-5h-5c-.55228475 0-1-.4477153-1-1v-4c0-.5522847.44771525-1 1-1h5zm0-8h-4v-3h4zm0-5h-5c-.55228475 0-1-.4477153-1-1v-4c0-.5522847.44771525-1 1-1h5zm.18-8h-3.752l2.112-5.8 2.369 2.157zm-1.915-8.751c-.3540895-.3551547-.3540895-.9298453 0-1.285l2.7-2.7c.3560657-.353773.9309343-.353773 1.287 0l3.361 3.361-3.673 3.968zm16.735 45.751h-9v-3h9zm0-5h-9v-12h8c0 1.155-.117 2.212 1 3.22zm0-17.22c-1.132 1.02-1 2.142-1 3.22h-8v-11h9zm0-9.78h-9c.0064731-5.1329477 3.8933834-9.4297111 9-9.949zm11 32h-9v-3h9zm0-5h-9v-8h9zm0-10h-9c-.5522847 0-1-.4477153-1-1v-4c0-.5522847.4477153-1 1-1h9zm0-8h-9v-7h9zm-9-9v-9.949c5.1066166.5192889 8.9935269 4.8160523 9 9.949zm13 32h-2v-32c0-6.627417-5.372583-12-12-12s-12 5.372583-12 12v32h-2v-35.9l.925-4.626 4.647-5.017 4.428-1.648c.3264273.727844 1.0513175 1.1947689 1.849 1.191h4.3c.7984063.0045625 1.5242789-.46249 1.851-1.191l4.43 1.647 4.647 5.017.923 4.627zm.06-42.407-3.672-3.966 3.362-3.361c.3554973-.35420478.9305027-.35420478 1.286 0l2.7 2.7c.339575.3435242.354446.8915662.034 1.253zm1.031 1.766 2.369-2.159 2.112 5.8h-3.752zm12.909 40.641h-12v-9h8c2.209139 0 4 1.790861 4 4z"></path><path id="Shape" d="m34 41h3c.5522847 0 1-.4477153 1-1s-.4477153-1-1-1h-3c-.5522847 0-1 .4477153-1 1s.4477153 1 1 1z"></path></g></g></svg>