<!-- icon666.com - MILLIONS vector ICONS FREE --><svg id="Capa_1" enable-background="new 0 0 512 512" viewBox="0 0 512 512" xmlns="http://www.w3.org/2000/svg"><g><g><g><g><g><g><g><g><path d="m271.002 511.568c-4.964.287-9.966.432-15.002.432-25.573 0-50.271-3.75-73.573-10.73l-30-11.088c-89.787-39.769-152.427-129.66-152.427-234.182 0-141.385 114.615-256 256-256s256 114.615 256 256c0 126.036-91.081 230.8-211.014 252.06z" fill="#a3d4ff"></path></g></g></g></g></g></g></g><path d="m301.016 508.055c119.918-21.272 210.984-126.029 210.984-252.055 0-11.624-.775-23.066-2.275-34.28l-116.222-116.222-281.247 168.682 61.642 61.642 8.53 165.449c23.302 6.979 47.999 10.729 73.572 10.729 5.041 0 10.047-.146 15.016-.433z" fill="#65b1fc"></path><g><ellipse cx="338.628" cy="157.713" fill="#ffce00" rx="75.746" ry="75.746" transform="matrix(.707 -.707 .707 .707 -12.338 285.639)"></ellipse></g><g><path d="m338.628 81.966c-.195 0-.386.013-.58.015v151.464c.194.001.386.015.58.015 41.834 0 75.746-33.913 75.746-75.746.001-41.835-33.912-75.748-75.746-75.748z" fill="#fdba12"></path></g><g><path d="m271.016 322.35h-88.588v-72.35h-30v240.183c9.698 4.295 19.713 8.006 30 11.087v-10.768h88.588v21.064c10.171-.588 20.182-1.771 30-3.512v-258.054h-30zm0 138.152h-88.588v-39.076h88.588zm0-69.076h-88.588v-39.076h88.588z" fill="#707789"></path></g><g><path d="m271.016 250v72.35h-43.209v30h43.209v39.077h-43.209v30h43.209v39.076h-43.209v30h43.209v21.064c10.171-.588 20.182-1.771 30-3.512v-258.055z" fill="#555a66"></path></g><g><path d="m301.095 287.567c36.851 0 66.724-29.873 66.724-66.724 0-32.6-23.379-59.739-54.285-65.566-6.014-41.461-41.704-73.31-84.832-73.31-42.908 0-78.453 31.524-84.738 72.675-32.892 4.124-58.338 32.191-58.338 66.202 0 36.85 29.873 66.724 66.724 66.724h148.745z" fill="#fff"></path></g><g><path d="m313.534 155.277c-6.015-41.462-41.704-73.311-84.832-73.311-.3 0-.595.017-.894.021v205.58h73.288c36.85 0 66.724-29.874 66.724-66.724-.001-32.6-23.38-59.739-54.286-65.566z" fill="#e9edf5"></path></g></g></svg>