<!-- icon666.com - MILLIONS vector ICONS FREE --><svg id="Layer_1" viewBox="0 0 256 256" xmlns="http://www.w3.org/2000/svg"><g><g><g><path d="m195.615 253.045v-8.606c0-21.433-17.375-38.807-38.807-38.807h-56.844c-21.433 0-38.808 17.375-38.808 38.807v8.606z" fill="#6bdddd"></path></g><g><path d="m195.615 255.045h-134.459c-1.104 0-2-.896-2-2v-8.606c0-22.501 18.306-40.808 40.808-40.808h56.844c22.501 0 40.808 18.306 40.808 40.808v8.606c-.001 1.105-.896 2-2.001 2zm-132.459-4h130.459v-6.606c0-20.296-16.512-36.808-36.808-36.808h-56.843c-20.296 0-36.808 16.512-36.808 36.808z" fill="#3762cc"></path></g><g><path d="m199.947 147.212h-143.123v-40.105c0-39.522 32.039-71.561 71.561-71.561 39.522 0 71.561 32.039 71.561 71.561v40.105z" fill="#4671c6"></path></g><g><path d="m199.947 149.212h-143.123c-1.104 0-2-.896-2-2v-40.105c0-40.562 33-73.562 73.561-73.562 40.562 0 73.562 33 73.562 73.562v40.105c0 1.105-.896 2-2 2zm-141.123-4h139.123v-38.105c0-38.356-31.205-69.562-69.561-69.562s-69.562 31.205-69.562 69.562z" fill="#3762cc"></path></g><g><path d="m152.086 207.883v-29.704h-47.4v29.704c0 13.089 10.611 23.7 23.7 23.7 13.089 0 23.7-10.611 23.7-23.7z" fill="#f9cfcf"></path></g><g><path d="m128.386 233.583c-14.171 0-25.7-11.529-25.7-25.7v-29.704c0-1.104.896-2 2-2h47.4c1.104 0 2 .896 2 2v29.704c-.001 14.171-11.529 25.7-25.7 25.7zm-21.7-53.404v27.704c0 11.965 9.734 21.7 21.7 21.7s21.7-9.735 21.7-21.7v-27.704z" fill="#3762cc"></path></g><g><path d="m65.767 118.434c0-44.158 30.612-67.918 62.619-67.918 31.493 0 62.619 23.163 62.619 67.918 11.395 0 19.5 8.965 19.5 19.191 0 9.705-6.95 19.191-21.404 19.191-6.849 27.156-31.431 47.26-60.714 47.26-29.283 0-53.865-20.103-60.714-47.26-14.318 0-21.404-9.375-21.404-19.191-.002-10.182 8.053-19.191 19.498-19.191z" fill="#f9cfcf"></path></g><g><ellipse cx="168.438" cy="160.02" fill="#f9a7a7" rx="11.141" ry="6.219"></ellipse></g><g><path d="m158.722 151.608c-4.177 0-7.564-3.386-7.564-7.564v-8.068c0-4.177 3.386-7.564 7.564-7.564 4.177 0 7.564 3.386 7.564 7.564v8.068c0 4.177-3.386 7.564-7.564 7.564z" fill="#3762cc"></path></g><g><ellipse cx="89.016" cy="160.02" fill="#f9a7a7" rx="11.141" ry="6.219"></ellipse></g><g><path d="m98.116 151.813c4.214 0 7.631-3.416 7.631-7.631v-8.139c0-4.214-3.416-7.631-7.631-7.631-4.214 0-7.631 3.416-7.631 7.631v8.139c0 4.215 3.416 7.631 7.631 7.631z" fill="#3762cc"></path></g><g><path d="m128.386 206.076c-29.138 0-54.523-19.37-62.263-47.294-15.003-.682-21.855-11.283-21.855-21.156 0-11.224 8.425-20.15 19.519-21.106.89-44.657 32.937-68.003 64.6-68.003 16.93 0 32.738 6.301 44.513 17.741 12.757 12.396 19.681 29.742 20.085 50.262 11.094.956 19.519 9.882 19.519 21.105 0 9.873-6.852 20.474-21.855 21.156-7.74 27.925-33.126 47.295-62.263 47.295zm0-153.559c-30.124 0-60.619 22.643-60.619 65.918 0 1.104-.896 2-2 2-9.813 0-17.5 7.551-17.5 17.19 0 8.557 6 17.191 19.404 17.191.916 0 1.715.623 1.939 1.511 6.793 26.937 30.962 45.749 58.774 45.749s51.982-18.813 58.775-45.749c.224-.888 1.023-1.511 1.939-1.511 13.404 0 19.404-8.634 19.404-17.19 0-9.64-7.687-17.191-17.5-17.191-1.104 0-2-.896-2-2 .002-45.29-31.42-65.918-60.616-65.918z" fill="#3762cc"></path></g><g><path d="m140.364 176.396c-.515 0-1.029-.197-1.42-.592-1.469-1.48-3.465-2.634-5.773-3.336-1.388-.423-2.954-.628-4.786-.628-1.833 0-3.398.205-4.786.628-2.308.702-4.304 1.855-5.773 3.336-.778.784-2.044.789-2.829.011-.784-.778-.789-2.044-.011-2.829 1.935-1.95 4.51-3.452 7.449-4.346 1.771-.539 3.717-.801 5.95-.801s4.179.262 5.95.801c2.939.894 5.515 2.397 7.448 4.347.778.784.773 2.05-.012 2.828-.388.388-.897.581-1.407.581z" fill="#3762cc"></path></g><g><path d="m130.405 35.763c-22.75-.583-55.057 7.671-74.696 20.268-.878.563-.397 1.932.642 1.841l12.025-1.055c-10.635 8.099-18.267 16.603-22.401 21.701-1.267 1.562.163 3.839 2.124 3.389l14.655-3.357s3.147 32.01 61.968 39.564c1.576.202 2.754-1.43 2.057-2.858l-10.82-22.141c-.409-.837.676-1.606 1.323-.936 8.628 8.915 31.186 26.672 73.722 26.255h8.943v-11.324c0-38.705-30.85-70.355-69.542-71.347z" fill="#4671c6"></path></g><g><path d="m189.492 120.442c-35.735 0-57.373-12.502-68.905-22.412l7.989 16.349c.646 1.32.513 2.884-.344 4.08-.86 1.2-2.301 1.827-3.764 1.64-51.412-6.602-61.417-31.471-63.291-39.134l-12.63 2.894c-1.742.397-3.475-.323-4.419-1.838-.941-1.51-.826-3.378.295-4.761 3.772-4.653 9.662-11.201 17.56-17.873l-5.456.478c-1.386.117-2.662-.713-3.11-2.029-.454-1.329.034-2.731 1.213-3.488 19.252-12.349 51.847-21.188 75.828-20.584 19.237.493 37.229 8.354 50.661 22.135 13.432 13.78 20.829 31.968 20.829 51.211v11.325c0 1.104-.896 2-2 2h-8.942c-.508.004-1.013.007-1.514.007zm-72.792-30.514c.738 0 1.47.292 2.02.86 7.597 7.85 29.863 26.081 72.266 25.646h6.962v-9.325c0-37.915-29.69-68.376-67.593-69.347-21.813-.551-50.971 6.942-69.909 17.743l7.757-.68c.894-.083 1.719.44 2.04 1.271s.055 1.773-.653 2.313c-10.227 7.788-17.641 15.919-22.06 21.37-.036.043-.049.06-.008.125.046.074.077.066.131.054l14.655-3.357c.561-.127 1.148-.009 1.615.326.466.336.766.856.822 1.428.007.067.899 7.665 8.639 16.044 7.222 7.819 22.036 17.936 51.593 21.731l-10.814-22.137c-.613-1.254-.228-2.748.917-3.551.492-.345 1.058-.514 1.62-.514z" fill="#3762cc"></path></g></g><g><g><circle cx="45.496" cy="183.889" fill="#ffea92" r="36.111"></circle></g><g><ellipse cx="45.496" cy="183.889" fill="#eaa97d" rx="28.382" ry="28.382" transform="matrix(.707 -.707 .707 .707 -116.704 86.03)"></ellipse></g><g><path d="m63.181 193.181v-18.583c0-.568-.303-1.094-.796-1.378l-16.094-9.292c-.492-.284-1.099-.284-1.591 0l-16.094 9.292c-.492.284-.796.809-.796 1.378v18.583c0 .568.303 1.094.796 1.378l16.094 9.292c.492.284 1.099.284 1.591 0l16.094-9.292c.492-.284.796-.81.796-1.378z" fill="#ffea92"></path></g><g><path d="m45.496 222c-21.014 0-38.11-17.097-38.11-38.111s17.096-38.111 38.11-38.111 38.111 17.097 38.111 38.111-17.097 38.111-38.111 38.111zm0-72.222c-18.809 0-34.11 15.302-34.11 34.111s15.301 34.111 34.11 34.111 34.111-15.302 34.111-34.111-15.303-34.111-34.111-34.111z" fill="#3762cc"></path></g><g><path d="m45.496 214.271c-16.752 0-30.382-13.629-30.382-30.382s13.629-30.382 30.382-30.382 30.382 13.629 30.382 30.382-13.63 30.382-30.382 30.382zm0-56.764c-14.547 0-26.382 11.835-26.382 26.382s11.835 26.382 26.382 26.382 26.382-11.835 26.382-26.382-11.836-26.382-26.382-26.382z" fill="#3762cc"></path></g><g><path d="m45.496 206.062c-.621 0-1.242-.16-1.796-.479l-16.094-9.292c-1.107-.639-1.795-1.831-1.795-3.11v-18.583c0-1.279.688-2.471 1.795-3.11l16.094-9.292c1.107-.64 2.484-.64 3.591 0l16.094 9.292c1.107.639 1.795 1.831 1.795 3.11v18.583c0 1.279-.688 2.471-1.795 3.11l-16.094 9.292c-.553.319-1.174.479-1.795.479zm-15.685-13.117 15.685 9.055 15.685-9.055v-18.112l-15.685-9.056-15.685 9.056z" fill="#3762cc"></path></g></g><g><path d="m200.269 2c-27.123 0-49.11 21.987-49.11 49.11 0 9.028 2.447 17.48 6.698 24.749l-4.722 17.655c-.427 1.598 1.034 3.06 2.632 2.632l16.794-4.492c7.888 5.401 17.427 8.566 27.709 8.566 27.123 0 49.11-21.987 49.11-49.11-.001-27.123-21.988-49.11-49.111-49.11z" fill="#e0ebfc"></path></g><g><g><path d="m200.966 70.105c-2.485 0-4.5-2.015-4.5-4.5v-18.205c0-4.991 4.061-9.051 9.052-9.051 3.793 0 6.878-3.085 6.878-6.878s-3.085-6.878-6.878-6.878h-9.103c-3.793 0-6.878 3.085-6.878 6.878 0 2.485-2.015 4.5-4.5 4.5s-4.5-2.015-4.5-4.5c0-8.755 7.123-15.878 15.878-15.878h9.103c8.755 0 15.878 7.123 15.878 15.878s-7.123 15.878-15.878 15.878l-.052 18.256c0 2.485-2.015 4.5-4.5 4.5z" fill="#f9a7a7"></path></g></g><g><circle cx="200.969" cy="81.21" fill="#f9a7a7" r="4.504"></circle></g><g><path d="m30.356 253.045h32.288c6.824 0 12.356-5.532 12.356-12.356v-6.353c0-2.76-2.237-4.997-4.997-4.997h-47.006c-2.76 0-4.997 2.237-4.997 4.997v6.353c0 6.824 5.532 12.356 12.356 12.356z" fill="#f9cfcf"></path></g><g><path d="m62.644 255.045h-32.288c-7.916 0-14.356-6.44-14.356-14.356v-6.354c0-3.858 3.139-6.997 6.998-6.997h47.005c3.858 0 6.998 3.139 6.998 6.997v6.354c-.001 7.916-6.441 14.356-14.357 14.356zm-39.646-23.706c-1.653 0-2.998 1.344-2.998 2.997v6.354c0 5.71 4.646 10.356 10.356 10.356h32.288c5.71 0 10.356-4.646 10.356-10.356v-6.354c0-1.653-1.345-2.997-2.998-2.997z" fill="#3762cc"></path></g><g><g><path d="m200.966 72.104c-3.584 0-6.5-2.916-6.5-6.5v-18.204c0-6.094 4.958-11.051 11.052-11.051 2.689 0 4.878-2.188 4.878-4.878s-2.188-4.878-4.878-4.878h-9.103c-2.689 0-4.878 2.188-4.878 4.878 0 3.584-2.916 6.5-6.5 6.5s-6.5-2.916-6.5-6.5c0-9.858 8.02-17.878 17.878-17.878h9.103c9.858 0 17.878 8.02 17.878 17.878 0 9.184-6.96 16.773-15.883 17.768l-.046 16.372c-.001 3.577-2.917 6.493-6.501 6.493zm-4.551-49.511h9.103c4.896 0 8.878 3.982 8.878 8.878s-3.982 8.878-8.878 8.878c-3.888 0-7.052 3.163-7.052 7.051v18.205c0 1.378 1.122 2.5 2.5 2.5s2.5-1.122 2.5-2.5l.052-18.262c.003-1.102.897-1.994 2-1.994 7.652 0 13.878-6.226 13.878-13.878s-6.226-13.878-13.878-13.878h-9.103c-7.652 0-13.878 6.226-13.878 13.878 0 1.378 1.122 2.5 2.5 2.5s2.5-1.122 2.5-2.5c0-4.896 3.983-8.878 8.878-8.878z" fill="#3762cc"></path></g></g><g><path d="m200.97 87.714c-3.586 0-6.504-2.917-6.504-6.503s2.917-6.503 6.504-6.503c3.586 0 6.503 2.917 6.503 6.503s-2.917 6.503-6.503 6.503zm0-9.007c-1.381 0-2.504 1.123-2.504 2.503s1.123 2.503 2.504 2.503c1.38 0 2.503-1.123 2.503-2.503s-1.123-2.503-2.503-2.503z" fill="#3762cc"></path></g><g><path d="m200.269 102.22c-10.039 0-19.724-2.901-28.07-8.398l-15.916 4.257c-1.445.388-2.946-.014-4.006-1.075-1.061-1.06-1.462-2.558-1.075-4.006l4.51-16.859c-4.29-7.622-6.553-16.257-6.553-25.029 0-28.182 22.928-51.11 51.11-51.11s51.11 22.928 51.11 51.11-22.928 51.11-51.11 51.11zm-27.709-12.566c.399 0 .794.12 1.13.35 7.85 5.375 17.041 8.216 26.579 8.216 25.977 0 47.11-21.133 47.11-47.11s-21.133-47.11-47.11-47.11-47.11 21.133-47.11 47.11c0 8.344 2.222 16.553 6.425 23.739.27.461.344 1.011.206 1.526l-4.723 17.655c-.008.031-.022.083.039.145.062.062.114.048.145.039l16.793-4.492c.169-.045.343-.068.516-.068z" fill="#3762cc"></path></g></g></svg>