<!-- icon666.com - MILLIONS vector ICONS FREE --><svg id="Capa_1" enable-background="new 0 0 512 512" viewBox="0 0 512 512" xmlns="http://www.w3.org/2000/svg"><g><path d="m512 256c0 109.61-68.9 203.14-165.75 239.63-23.09 8.71-47.76 14.17-73.48 15.83h-.01c-5.54.36-11.13.54-16.76.54-141.38 0-256-114.62-256-256s114.62-256 256-256 256 114.62 256 256z" fill="#d9723e"></path><path d="m493.04 275.54c-4.74 21.8-46.93-7.63-53.44 15.39-7.14 27.85-17.4 57.47-29.37 86.14-18.97 45.49-42.21 88.61-63.98 118.56-23.09 8.71-47.76 14.17-73.48 15.83h-.01c-5.91-19.29-9.73-46.03-36.79-68.55-11.28-9.38-24.63-15.86-38.75-19.82-7.7-2.16-15.17-4.76-22.4-7.75-42.8 2.63-31.9 45.39-55.08 40.35s1.43-66.6-10.08-84.48c-44.77-45.84-66.39-112.57-51.76-179.87 17.79-81.82 84.15-140.72 162.25-152.99 23.4-3.68 47.85-3.17 72.37 2.16 42.37 9.21 78.56 31.39 105.33 61.48 26.77 30.08 44.12 68.06 48.77 108.87.09.73.16 1.46.23 2.2 3.81 24.61 50.8 41.28 46.19 62.48z" fill="#f1eee9"></path><g fill="#454045"><ellipse cx="184.686" cy="165.744" rx="28.604" ry="50.93" transform="matrix(.996 -.089 .089 .996 -14.033 17.114)"></ellipse><ellipse cx="296.563" cy="155.736" rx="28.604" ry="50.93" transform="matrix(.996 -.089 .089 .996 -12.696 27.042)"></ellipse><path d="m293.721 314.849c20.76-2.218 29.559-27.921 14.237-42.104-12.561-11.626-29.889-17.968-48.244-16.008-18.355 1.961-33.953 11.82-43.775 25.837-11.981 17.099 2.049 40.364 22.809 38.146z"></path></g><path d="m410.22 377.08c-18.97 45.49-42.2 88.6-63.97 118.55-23.09 8.71-47.77 14.17-73.49 15.83-5.91-19.29-9.73-46.03-36.79-68.55-11.28-9.38-24.63-15.86-38.75-19.82-3.44-.96-6.82-2.01-10.16-3.14-18.09-6.15-38.06 1.43-47.06 18.29-5.57 10.45-8.61 19.98-20.26 17.45-23.18-5.04 1.43-66.6-10.08-84.48-44.77-45.84-66.39-112.57-51.76-179.87 17.72-81.52 83.66-140.28 161.38-152.84-57.3 9.83-153.05 167.54-34.32 281.44 119.32 114.47 201.81 72.22 225.26 57.14z" fill="#d8d4ce"></path></g></svg>